<svg width="19" height="20" viewBox="0 0 19 20" fill="none" xmlns="http://www.w3.org/2000/svg">
<path d="M9.05551 14.2299C8.75831 14.8539 8.61045 15.5712 8.60488 16.2646C7.1003 16.0239 5.90332 14.5289 5.99174 12.9813C3.03682 10.526 5.96053 7.44555 8.50568 6.36999C9.8847 5.78724 11.724 5.46828 13.054 6.32313C13.4444 6.57407 14.109 7.16929 14.0589 7.67872C13.9727 8.54794 11.99 9.22025 11.2767 9.37747C9.93485 9.67338 7.67984 9.74971 8.12267 7.69762C6.86328 8.1908 6.30752 9.78675 7.28642 10.8695C7.33917 10.9277 7.45694 10.9579 7.45099 11.0312C6.57797 12.0864 6.42268 13.4696 7.2385 14.6169C7.44282 14.9045 7.76788 15.2167 8.08552 15.3592C8.24155 12.2912 11.5301 11.8045 13.5737 10.5067C16.3451 8.74634 16.2756 3.93129 13.1818 2.53261C9.56 0.895473 5.63138 4.42901 4.03542 7.48372C2.049 11.2852 2.03934 16.4702 6.79604 17.898C11.0085 19.1625 13.6305 16.4426 15.9286 13.3551C16.6698 12.3592 17.5135 10.9182 18.4563 10.1522C18.4901 10.1246 18.6722 9.97193 18.6963 10.0007V14.5856C18.5247 17.2839 16.377 19.5129 13.7082 19.664C10.8796 19.8239 7.90571 19.5408 5.06224 19.6618C2.24441 19.3817 0.282515 17.1807 0.144688 14.3225C-0.000196986 11.3203 0.222703 8.16624 0.188154 5.15461C0.470866 2.65884 2.4231 0.664943 4.88132 0.379992C7.70361 0.415139 10.673 0.188766 13.4857 0.336154C15.3929 0.435924 17.084 1.417 18.0213 3.11914C18.9749 4.85076 18.661 6.7328 18.6777 8.64053C18.2316 8.92774 17.8159 9.26938 17.4347 9.6405C16.993 10.0702 16.604 10.5592 16.1749 11.0006C14.2599 12.9707 12.0792 15.2329 9.05588 14.2299H9.05551Z" fill="#282828"/>
</svg>
