<svg width="329" height="248" viewBox="0 0 329 248" fill="none" xmlns="http://www.w3.org/2000/svg">
<path d="M56.3739 234.253C56.3739 234.253 15.4049 205.179 3.61372 155.701C-8.17744 106.215 9.82433 46.2141 43.9602 15.9069C78.1035 -14.4002 139.557 6.01132 166.867 31.3707L194.177 56.73C194.177 56.73 220.25 70.9531 254.393 69.7198C288.537 68.4792 318.952 114.87 327.023 151.366C335.094 187.862 315.847 236.106 315.847 236.106L56.3739 234.253Z" fill="#DDECFF"/>
<g style="mix-blend-mode:multiply">
<path d="M37.7571 241.675C37.7571 241.675 9.20184 226.211 1.75361 190.336C-5.69462 154.46 26.581 121.679 29.6863 103.742C32.7917 85.8039 25.9585 63.5388 54.5138 46.2141C83.0691 28.8968 133.969 35.0778 153.216 30.7503C172.463 26.4229 194.808 -3.27142 233.294 3.53741C271.78 10.3388 309.029 30.7503 310.889 75.288C312.749 119.826 298.475 121.059 312.749 145.185C327.023 169.311 332.611 186.008 325.785 210.747C318.96 235.486 304.678 242.295 304.678 242.295L37.7571 241.675Z" fill="#DDECFF"/>
</g>
<g style="mix-blend-mode:multiply">
<path d="M97.3803 233.633C95.6026 231.779 69.5526 179.82 98.5654 132.195C127.578 84.5707 200.403 90.1314 229.416 108.689C258.429 127.247 272.635 151.366 275.598 176.725C278.561 202.085 259.021 241.675 259.021 241.675L97.3803 233.633Z" fill="#DDECFF"/>
</g>
<path d="M301.648 122.038H268.18C266.109 122.038 264.43 123.711 264.43 125.775V142.427C264.43 144.491 266.109 146.164 268.18 146.164H301.648C303.72 146.164 305.399 144.491 305.399 142.427V125.775C305.399 123.711 303.72 122.038 301.648 122.038Z" fill="#60A8FF"/>
<path d="M284.914 155.596L290.224 143.07H279.611L284.914 155.596Z" fill="#60A8FF"/>
<path d="M284.794 129.961H294.372V131.358L299.068 128.653L294.372 125.954V127.352H284.794V129.961Z" fill="#223A7A"/>
<path d="M299.068 135.446H289.489V134.049L284.794 136.747L289.489 139.445V138.047H299.068V135.446Z" fill="white"/>
<path d="M278.913 137.905L278.456 138.07C278.456 138.07 277.03 136.455 276.295 134.692C275.56 132.928 275.53 130.783 275.53 130.783L275.86 130.641L273.835 125.812C273.475 126.096 273.13 126.455 272.853 126.926C271.705 128.854 271.817 131.821 272.973 134.714C274.128 137.606 275.358 140.192 277.608 141.814C278.936 142.771 280.076 142.943 280.953 142.801L278.906 137.913L278.913 137.905Z" fill="#223A7A"/>
<path d="M280.361 137.337L279.73 137.569L281.801 142.517C282.033 142.442 282.243 142.345 282.431 142.248C282.963 141.956 283.203 141.314 282.978 140.746L281.898 138.025C281.658 137.42 280.976 137.121 280.368 137.337H280.361Z" fill="#223A7A"/>
<path d="M275.425 124.96C275.17 125.05 274.893 125.177 274.615 125.341L276.685 130.274L277.383 129.983C277.991 129.729 278.276 129.049 278.043 128.436L276.955 125.655C276.723 125.05 276.04 124.736 275.433 124.96H275.425Z" fill="#223A7A"/>
<path d="M87.6971 225.284V169.618C87.6971 169.618 87.0745 154.617 94.9878 150.29C102.901 145.962 136.264 148.279 136.264 148.279V225.284H87.6896H87.6971Z" fill="#1C83FF"/>
<path d="M146.698 96.163C146.698 96.163 144.68 113.017 143.908 114.407L143.135 115.797L139.257 118.428C139.257 118.428 146.706 128.944 155.864 130.641C165.022 132.345 164.242 126.926 164.242 126.926L162.847 123.989L164.707 107.905C164.707 107.905 148.101 100.326 146.706 96.1555L146.698 96.163Z" fill="#FF9D8C"/>
<path d="M134.434 119.826L140.487 117.195C140.487 117.195 144.365 123.533 153.366 127.247C162.367 130.962 162.524 128.795 162.989 127.247C163.454 125.7 162.832 124.004 162.832 124.004L163.499 118.592L167.1 119.788L179.596 220.501L147.47 222.048L134.434 119.833V119.826Z" fill="white"/>
<path d="M164.077 118.69C164.077 118.69 166.253 123.69 168.27 135.439C170.288 147.188 172.148 166.987 172.613 180.589C173.078 194.192 173.386 225.277 173.386 225.277H213.89C214.355 225.277 217.145 209.97 217.145 209.97C217.145 209.97 199.451 194.865 198.521 192.391C197.898 190.739 198.213 160.178 195.573 146.104C192.933 132.031 189.52 129.198 182.379 125.693C174.998 122.068 164.07 118.682 164.07 118.682L164.077 118.69Z" fill="#223A7A"/>
<path d="M185.184 207.563C184.974 207.563 184.809 207.399 184.809 207.189C184.809 206.083 184.614 190.373 184.419 175.186C184.232 159.991 184.029 144.281 184.029 143.174C184.029 142.965 184.194 142.801 184.404 142.801C184.614 142.801 184.779 142.965 184.779 143.174C184.779 144.281 184.974 159.991 185.169 175.178C185.357 190.373 185.559 206.083 185.559 207.189C185.559 207.399 185.394 207.563 185.184 207.563Z" fill="#8593B6"/>
<path d="M104.484 203.789L104.176 225.284H151.356C151.356 225.284 153.374 207.04 152.601 205.336C151.828 203.632 104.491 203.789 104.491 203.789H104.484Z" fill="#223A7A"/>
<g style="mix-blend-mode:multiply">
<path d="M156.989 113.944C158.909 115.491 161.542 116.724 163.59 117.479L164.7 107.912C164.7 107.912 152.226 102.217 147.996 97.9866C148.881 102.8 151.056 109.175 156.989 113.944Z" fill="#8E9BBB"/>
</g>
<path d="M179.288 64.772C179.288 64.772 182.544 70.3402 183.166 77.1415C183.789 83.9429 183.166 101.417 177.578 108.839C171.99 116.261 160.349 114.093 155.076 109.609C150.23 105.49 145.452 100.946 144.215 91.9774C142.97 83.0086 146.855 65.9977 157.874 62.4401C168.892 58.8825 179.288 64.7571 179.288 64.7571V64.772Z" fill="#FF9D8C"/>
<path d="M193.285 215.56C193.285 215.56 192.737 215.56 191.905 215.538C191.71 215.531 191.492 215.538 191.267 215.531C190.465 215.508 189.489 215.486 188.507 215.456C188.289 215.448 188.064 215.441 187.847 215.433C186.872 215.411 186.039 215.531 185.259 215.486H185.237C185.072 215.478 184.832 215.501 184.637 215.508C184.539 215.508 184.449 215.523 184.389 215.508C183.939 215.426 183.849 215.321 183.361 215.105C182.731 214.821 174.203 212.922 167.265 212.967C160.334 212.997 154.116 213.468 153.103 212.623C152.083 211.764 151.468 203.086 157.386 202.518L164.662 205.269C164.662 205.269 181.276 203.303 187.367 207.78C193.472 212.257 193.285 215.553 193.285 215.553V215.56Z" fill="#FF9D8C"/>
<path d="M185.236 215.486C185.071 215.478 184.831 215.501 184.636 215.508C184.486 215.269 184.171 214.835 183.999 214.656C182.124 212.75 177.593 211.517 175.95 211.121C175.8 211.084 175.703 210.934 175.74 210.785C175.77 210.635 175.928 210.545 176.085 210.575C178.478 211.151 183.556 212.623 184.996 215.037C185.041 215.105 185.161 215.336 185.236 215.486Z" fill="#223A7A"/>
<path d="M188.507 215.456C188.289 215.456 188.064 215.448 187.847 215.433C185.799 211.711 182.446 210.642 178.313 209.319L178.066 209.237C177.923 209.192 177.841 209.028 177.886 208.879C177.931 208.737 178.088 208.654 178.246 208.699L178.486 208.781C182.866 210.179 186.384 211.308 188.514 215.456H188.507Z" fill="#223A7A"/>
<path d="M191.904 215.538C191.709 215.538 191.492 215.538 191.267 215.531C190.022 212.93 185.911 208.572 180.481 207.563C180.323 207.533 180.226 207.391 180.248 207.234C180.278 207.085 180.428 206.988 180.578 207.01C186.181 208.057 190.697 212.616 191.912 215.538H191.904Z" fill="#223A7A"/>
<path d="M147.935 84.3316C147.935 84.3316 151.348 82.7098 153.756 78.1431C156.164 73.584 155.849 69.4807 155.849 69.4807C155.849 69.4807 160.192 68.7857 166.71 70.7214C173.228 72.6572 180.984 75.2806 187.502 71.5735C194.02 67.8589 194.02 61.9096 190.84 59.4357C187.277 56.6628 180.211 58.3519 180.211 58.3519C180.211 58.3519 182.926 55.7211 181.456 54.174C179.978 52.6268 174.63 54.6373 174.63 54.6373C174.63 54.6373 168.112 49.4579 155.774 50.0782C143.435 50.6985 137.539 59.2787 136.842 68.8679C136.144 78.457 139.632 88.0462 139.632 88.0462L147.935 84.3316Z" fill="#223A7A"/>
<g style="mix-blend-mode:multiply">
<path d="M172.966 86.656C172.268 88.3751 172.283 90.3706 172.11 92.1868C171.975 93.6069 171.713 95.2586 173.018 96.2153C173.641 96.6712 176.588 97.9044 175.073 98.906C174.496 99.2871 173.528 99.1825 172.868 99.1526C172.418 99.1302 171.96 99.1152 171.503 99.0779C171.015 99.0405 170.543 98.8985 170.055 98.891C169.77 98.891 169.68 99.2647 169.913 99.4142C170.693 99.9 171.848 100.057 172.756 100.087C173.671 100.124 174.286 100.087 175.111 99.6758C175.613 99.4291 176.108 99.0704 176.183 98.4725C176.273 97.7998 175.763 97.1944 175.253 96.8132C174.668 96.3797 173.948 96.1779 173.356 95.7519C172.53 95.1689 172.598 94.1749 172.658 93.2631C172.801 91.0657 173.303 88.9057 173.498 86.7158C173.528 86.3795 173.063 86.3795 172.958 86.6411L172.966 86.656Z" fill="#8E9BBB"/>
</g>
<path d="M179.311 91.7981C179.078 93.0985 178.126 94.0253 177.188 93.8609C176.243 93.6965 175.673 92.5006 175.898 91.2001C176.131 89.8997 177.083 88.9729 178.021 89.1373C178.966 89.3017 179.536 90.4976 179.311 91.7981Z" fill="#223A7A"/>
<path d="M167.437 90.7666C167.227 92.1717 166.23 93.1882 165.217 93.0387C164.204 92.8892 163.544 91.6261 163.754 90.221C163.964 88.8159 164.962 87.7994 165.975 87.9489C166.987 88.0984 167.647 89.3615 167.437 90.7666Z" fill="#223A7A"/>
<path d="M176.551 86.4244C177.279 86.5439 178.006 86.4244 178.742 86.4767C178.914 86.4916 179.094 86.514 179.267 86.529C179.394 86.5439 179.034 86.4916 179.207 86.5215C179.244 86.5215 179.282 86.5365 179.319 86.5365C179.409 86.5514 179.499 86.5738 179.589 86.5963C179.747 86.6336 179.897 86.6934 180.054 86.7233C180.197 86.7532 180.354 86.7906 180.497 86.7831C180.579 86.7756 180.654 86.7607 180.737 86.7532C180.684 86.7607 180.639 86.7682 180.587 86.7831C180.587 86.7981 180.857 86.7607 180.887 86.7532C181.299 86.6561 181.562 86.1777 181.442 85.7741C181.412 85.6545 181.359 85.5574 181.284 85.4602C181.254 85.4228 181.224 85.378 181.187 85.3406C181.217 85.3705 181.247 85.4079 181.277 85.4378C181.247 85.3929 181.217 85.3556 181.179 85.3107C181.142 85.2435 181.082 85.1837 181.014 85.1463C180.954 85.1015 180.902 85.0566 180.842 85.0118C180.647 84.8772 180.399 84.8025 180.167 84.7427C179.732 84.6306 179.282 84.5783 178.832 84.5708C178.389 84.5708 177.946 84.6156 177.511 84.6754C177.121 84.7278 176.694 84.8623 176.379 85.094C176.139 85.2734 175.989 85.5051 176.026 85.819C176.064 86.0806 176.266 86.3795 176.551 86.4244Z" fill="#223A7A"/>
<path d="M168.27 84.3539C168.173 84.2941 168.068 84.2418 167.97 84.1969C167.88 84.1596 167.64 84.0325 167.82 84.1297C167.753 84.0923 167.685 84.0549 167.618 84.025C167.318 83.8756 167.003 83.7709 166.68 83.6887C165.975 83.5093 165.225 83.4645 164.497 83.5392C163.725 83.6214 163.012 83.8083 162.345 84.2119C162.247 84.2717 162.15 84.324 162.075 84.4062C162.022 84.4735 161.97 84.5407 161.917 84.608C161.932 84.5856 161.947 84.5632 161.962 84.5407C161.752 84.6828 161.632 84.9219 161.639 85.1686C161.639 85.4077 161.767 85.6095 161.977 85.7216C162.232 85.8636 162.472 85.7964 162.727 85.7216H162.337C162.555 85.759 162.705 85.7665 162.922 85.7216C162.93 85.7216 163.132 85.6693 162.997 85.6992C162.87 85.7291 163.207 85.6768 163.245 85.6693C163.29 85.6693 163.522 85.6394 163.275 85.6693C163.32 85.6693 163.365 85.6618 163.41 85.6544C163.53 85.6394 163.642 85.6245 163.762 85.617C164.272 85.5796 164.782 85.5572 165.3 85.5348C165.772 85.5198 166.26 85.5124 166.74 85.5348C166.943 85.5423 167.145 85.5497 167.348 85.5572C167.46 85.5572 167.415 85.5796 167.333 85.5572C167.378 85.5722 167.415 85.5796 167.46 85.5871C167.543 85.6095 167.625 85.6394 167.708 85.6693C168.038 85.7964 168.435 85.5572 168.555 85.2508C168.69 84.9219 168.578 84.5407 168.263 84.3539H168.27Z" fill="#223A7A"/>
<path d="M171.953 105.857C172.665 104.429 173.963 103.383 175.456 102.71C174.158 102.576 168.015 102.015 166.47 102.889C164.737 103.869 166.792 107.815 170.378 108.009C170.753 108.032 171.098 108.002 171.428 107.949C171.458 107.232 171.623 106.514 171.953 105.857Z" fill="#223A7A"/>
<path d="M143.593 97.5532C143.593 97.5532 144.215 99.9524 147.786 102.733C151.356 105.513 156.532 107.553 156.532 107.553L156.944 105.752C156.944 105.752 151.589 103.435 149.106 100.879C146.623 98.3305 146.316 96.9329 146.316 96.9329L143.6 97.5532H143.593Z" fill="#DEE1EB"/>
<path d="M157.559 104.414C160.432 104.28 162.037 106.544 162.232 108.009C162.435 109.474 161.054 111.118 157.822 109.676C153.809 107.882 154.679 104.549 157.552 104.414H157.559Z" fill="#223A7A"/>
<path d="M145.843 79.8472C145.843 79.8472 147.08 70.9606 153.058 64.9215C164.467 53.4041 174.165 54.0992 174.165 54.0992C174.165 54.0992 174.09 52.4773 170.437 51.2366C167.01 50.0781 165.472 50.6985 165.472 50.6985C165.472 50.6985 156.081 51.4683 148.168 60.2054C140.254 68.9426 139.399 80.0789 139.399 80.0789L145.843 79.8472Z" fill="#DEE1EB"/>
<path d="M144.988 78.7635C137.517 77.5003 133.347 83.3226 133.039 89.2047C132.731 95.0792 137.014 99.5487 142.737 99.1003C155.616 98.0987 154.146 80.3106 144.988 78.7635Z" fill="white"/>
<path d="M141.267 93.3901C139.294 93.3901 137.629 92.4035 136.677 90.6621C135.657 88.8011 135.739 86.5065 136.894 84.8174C136.984 84.6904 137.157 84.6605 137.284 84.7427C137.412 84.8324 137.449 85.0043 137.359 85.1313C136.324 86.6486 136.249 88.7114 137.172 90.393C138.042 91.985 139.587 92.8894 141.417 92.8296C143.127 92.7847 144.575 92.0074 145.49 90.6397C146.54 89.0776 146.78 86.9251 146.105 85.1463C145.43 83.3824 143.592 82.1866 141.92 82.4033C141.77 82.4257 141.627 82.3136 141.605 82.1641C141.582 82.0147 141.695 81.8727 141.845 81.8502C143.802 81.5886 145.858 82.9265 146.63 84.952C147.373 86.8952 147.103 89.2495 145.955 90.9536C144.927 92.4783 143.322 93.3453 141.432 93.3901C141.38 93.3901 141.327 93.3901 141.275 93.3901H141.267Z" fill="#818FB3"/>
<path d="M135.837 117.658C135.837 117.658 113.177 123.226 105.264 132.195C97.3505 141.164 93.6226 185.388 93.4726 193.587C93.3226 201.786 99.0607 205.186 102.473 207.503C105.886 209.82 120.94 213.998 133.046 214.619C145.153 215.239 156.636 214.619 156.636 214.619C156.636 214.619 156.599 211.988 158.459 208.124C160.184 204.536 162.374 203.796 162.374 203.796L151.978 200.082C151.978 200.082 150.156 167.577 147.32 151.837C144.065 133.742 135.837 117.666 135.837 117.666V117.658Z" fill="#223A7A"/>
<path d="M173.385 194.887C173.333 194.887 173.28 194.88 173.235 194.857C173.048 194.775 172.958 194.551 173.048 194.364C175.17 189.588 177.368 180.223 178.606 173.646L178.711 173.115C179.086 171.18 179.551 168.78 178.621 167.114C178.148 166.269 177.076 164.431 176.041 162.667C174.968 160.836 173.963 159.102 173.678 158.586C173.13 157.577 174.855 154.879 177.346 151.179C178.021 150.178 178.598 149.318 178.936 148.735C179.821 147.203 179.236 145.805 178.546 144.176L178.313 143.615C177.691 142.098 176.986 140.581 176.303 139.109C176.026 138.511 175.748 137.905 175.47 137.3C175.103 136.5 174.743 135.686 174.368 134.863C172.178 129.99 169.905 124.953 167.002 120.087C166.897 119.908 166.957 119.684 167.13 119.572C167.31 119.467 167.535 119.527 167.647 119.699C170.572 124.602 172.853 129.661 175.05 134.549C175.418 135.372 175.786 136.186 176.146 136.979C176.423 137.584 176.701 138.182 176.978 138.78C177.661 140.26 178.373 141.784 178.996 143.317L179.228 143.87C179.926 145.521 180.646 147.24 179.573 149.086C179.221 149.692 178.636 150.566 177.953 151.575C176.656 153.504 173.955 157.517 174.323 158.212C174.6 158.72 175.605 160.447 176.671 162.271C177.706 164.042 178.778 165.881 179.258 166.733C180.323 168.631 179.828 171.187 179.431 173.235L179.326 173.766C178.876 176.157 176.483 188.415 173.715 194.648C173.655 194.79 173.513 194.872 173.37 194.872L173.385 194.887Z" fill="#8593B6"/>
<path d="M151.273 196.195C151.175 196.195 151.078 196.158 151.01 196.083C149.248 194.312 140.742 179.64 140.112 176.882C139.767 175.373 140.637 171.538 141.477 167.831C142.13 164.961 142.805 161.994 142.61 161.187C142.325 159.984 140.149 158.212 138.049 156.501C135.506 154.43 132.881 152.293 132.371 150.365C131.794 148.175 132.289 134.467 132.611 125.401C132.731 122.143 132.821 119.564 132.821 118.645C132.821 118.436 132.986 118.271 133.196 118.271C133.406 118.271 133.571 118.436 133.571 118.645C133.571 119.579 133.481 122.158 133.361 125.424C133.054 133.899 132.544 148.085 133.091 150.17C133.541 151.859 136.181 154.012 138.514 155.91C140.817 157.786 142.985 159.55 143.33 161C143.562 161.972 142.932 164.76 142.197 167.981C141.41 171.434 140.524 175.35 140.832 176.696C141.455 179.401 149.803 193.796 151.536 195.538C151.678 195.687 151.678 195.919 151.536 196.068C151.46 196.143 151.37 196.18 151.273 196.18V196.195Z" fill="#8593B6"/>
<path d="M120.783 189.782C120.783 189.782 120.746 189.782 120.731 189.782C120.528 189.753 120.386 189.566 120.408 189.356C120.686 187.413 124.991 148.698 125.186 145.731C125.201 145.521 125.381 145.364 125.584 145.379C125.794 145.394 125.944 145.574 125.936 145.775C125.741 148.743 121.428 187.51 121.151 189.454C121.121 189.64 120.963 189.775 120.783 189.775V189.782Z" fill="#8593B6"/>
<path d="M151.663 200.298C151.618 200.298 151.566 200.291 151.521 200.269C150.568 199.88 146.353 198.467 141.02 196.674C130.249 193.056 115.502 188.101 112.697 186.643C112.51 186.546 112.442 186.322 112.54 186.143C112.637 185.956 112.862 185.889 113.042 185.986C115.795 187.413 131.119 192.563 141.26 195.971C146.608 197.772 150.831 199.185 151.806 199.581C152.001 199.656 152.091 199.88 152.016 200.067C151.956 200.209 151.813 200.298 151.671 200.298H151.663Z" fill="#8593B6"/>
<path d="M146.48 215.71C136.999 215.71 118.63 214.006 104.671 209.088C104.476 209.021 104.371 208.804 104.446 208.61C104.514 208.415 104.731 208.311 104.926 208.385C122.56 214.604 147.23 215.665 151.821 214.634C152.023 214.589 152.226 214.716 152.271 214.918C152.316 215.119 152.188 215.321 151.986 215.366C150.996 215.59 149.068 215.71 146.495 215.71H146.48Z" fill="#8593B6"/>
<path d="M37.9971 122.875C40.9374 125.454 44.6653 127.105 47.2455 130.087C48.2581 131.261 49.1732 132.509 50.1183 133.742C50.8009 134.639 52.6386 136.126 52.9311 137.248C53.0586 137.741 53.0361 137.068 52.9011 136.575C52.9011 136.553 52.8861 136.538 52.8786 136.515C52.6236 134.236 52.436 131.949 52.3535 129.654C52.271 127.367 52.4135 125.072 52.271 122.793C52.0685 119.572 51.0559 116.455 48.4156 114.437C47.1255 113.45 45.4679 112.852 44.2752 111.754C43.1501 110.715 43.6002 109.526 44.2602 108.368C44.8828 107.284 45.6329 106.215 45.8729 104.967C46.1504 103.547 45.6104 102.082 44.8903 100.879C43.3526 98.308 39.9473 95.4379 36.7145 95.8266C34.0217 96.148 33.7142 99.2422 33.7592 101.395C33.7967 103.487 34.0067 105.58 34.0217 107.673C34.0442 109.825 33.6767 111.941 33.6467 114.086C33.5942 117.733 35.2894 120.513 37.9746 122.868L37.9971 122.875Z" fill="#6BAEFF"/>
<path d="M65.3375 156.344C66.155 154.393 67.1001 152.577 68.2552 150.805C69.8379 148.376 71.6006 146.007 72.6657 143.287C73.7533 140.506 73.5958 137.539 73.7008 134.617C73.7758 132.464 74.4208 130.327 74.2483 128.167C74.1658 127.135 73.5658 125.461 72.2231 125.633C71.1805 125.767 70.558 127.053 70.1604 127.883C69.4629 129.318 68.9753 130.85 68.4578 132.36C68.2552 132.95 68.0602 133.548 67.8052 134.116C67.6552 134.445 67.1826 135.252 66.7326 135.147C65.9675 134.96 66.6651 131.859 66.7776 131.306C67.3477 128.548 68.2027 125.984 68.3228 123.144C68.4953 119.026 68.1727 114.13 64.1298 111.873C63.0722 111.283 61.7371 110.932 60.732 111.813C59.7419 112.68 59.4644 114.183 59.3144 115.423C58.8643 119.228 59.7644 122.823 60.987 126.403C61.9996 129.355 63.1998 132.404 63.2898 135.566C63.3723 138.608 61.7896 141.298 61.0395 144.176C59.8544 148.75 60.0945 151.179 60.0945 152.659C60.0945 154.513 60.1545 156.351 60.2895 158.205C60.417 159.909 60.5595 161.605 60.7695 163.302C60.8145 163.646 60.852 164.005 60.897 164.363C60.237 162.786 60.0119 160.985 59.4644 159.401C58.4968 156.59 57.3792 153.832 56.4491 151.007C55.684 148.675 54.9564 146.321 53.9513 144.071C53.0063 141.964 51.8586 139.736 50.0885 138.189C49.0159 137.255 47.7257 136.709 46.2931 136.717C45.378 136.717 44.5529 137.038 43.6828 137.27C42.6102 137.554 41.7626 137.457 40.8776 136.777C37.9823 134.557 37.0972 130.581 34.9595 127.77C33.3618 125.678 29.5665 122.105 26.7762 124.392C25.2985 125.603 24.886 127.942 24.9685 129.744C25.066 131.993 26.0561 134.056 27.2262 135.94C28.4788 137.943 30.0915 139.736 31.2391 141.792C31.9217 143.01 32.0267 144.176 31.9142 145.544C31.8092 146.837 31.6967 148.085 32.1392 149.333C33.4668 153.078 37.6147 152.554 40.8401 152.651C43.0978 152.719 45.513 153.055 47.6582 153.773C50.1335 154.602 51.7461 156.209 52.6312 158.646C53.2688 160.41 53.6138 162.42 54.8214 163.915C55.3915 164.617 56.1416 165.141 56.9666 165.507C58.2268 166.06 62.0596 166.299 62.0821 165.955C62.1796 164.789 62.7347 163.556 63.0797 162.45C63.7323 160.372 64.4974 158.347 65.345 156.336L65.3375 156.344Z" fill="#6BAEFF"/>
<path d="M83.1365 155.634C82.8065 153.496 82.8665 151.134 81.8539 149.169C81.7789 149.027 81.5913 148.989 81.4563 149.064C80.7288 149.468 80.6988 150.641 80.6388 151.359C80.5412 152.554 80.6162 153.75 80.4662 154.939C80.2112 157.031 79.7237 159.184 78.9661 161.15C78.111 163.377 76.5583 164.64 74.3006 165.335C72.853 165.783 71.4278 166.172 70.2127 167.129C69.1251 167.988 68.375 169.169 67.82 170.417C66.3123 173.788 65.5923 177.548 64.8947 181.15C64.4222 183.572 64.0396 186.008 63.4471 188.407C62.8545 190.806 62.2244 193.191 61.8869 195.642C61.8269 195.769 61.7669 195.889 61.7144 196.016C61.5569 196.382 62.1344 196.576 62.3295 196.277C64.6622 192.705 67.4975 189.491 71.3753 187.525C73.123 186.636 75.4482 186.449 76.9109 185.051C78.021 183.99 78.171 182.368 78.006 180.918C77.7885 179.02 76.8734 177.458 75.9208 175.836C75.3957 174.947 74.7807 173.997 74.9907 172.914C75.1932 171.897 76.0408 171.142 76.8809 170.619C78.4935 169.625 80.3762 169.177 81.6889 167.742C82.9115 166.411 83.594 164.745 83.729 162.951C83.9091 160.559 83.4965 157.988 83.129 155.626L83.1365 155.634Z" fill="#6BAEFF"/>
<path d="M51.3632 167.981C49.308 165.342 46.8253 163.063 44.035 161.217C42.5423 160.23 39.032 158.287 38.3194 161.194C37.9069 162.898 39.5796 164.573 40.6822 165.641C42.3398 167.248 44.2525 168.631 45.6477 170.485C43.915 171.038 42.1073 171.142 40.6072 172.331C38.8295 173.743 38.0269 176.464 39.7971 178.198C40.6597 179.042 41.7998 179.558 42.8649 180.074C44.26 180.746 45.6777 181.352 47.1028 181.95C50.1856 183.235 53.3059 184.536 55.9312 186.636C58.6089 188.773 61.1292 192.398 61.3392 195.889C61.3617 196.225 61.2342 195.919 61.4292 195.769C61.5417 195.866 61.9017 195.694 61.9017 195.5C61.8492 190.321 60.9116 185.38 58.7889 180.634C56.8162 176.232 54.3335 171.8 51.3632 167.988V167.981Z" fill="#6BAEFF"/>
<path d="M44.2525 119.728C45.3851 122.075 46.5702 124.37 47.8304 126.657C49.0455 128.862 50.2531 131.044 51.1607 133.398C52.2783 136.291 53.4484 139.139 54.626 142.009C55.8561 144.991 56.9513 148.025 57.8288 151.127C59.5465 157.181 60.8216 163.407 61.4517 169.67C61.7742 172.854 61.9167 176.053 61.8267 179.252C61.7592 181.748 61.4742 184.222 61.2417 186.711C60.9942 189.297 60.8216 191.92 61.0392 194.513C61.2192 196.681 61.5642 199.267 63.2594 200.814C63.5894 201.121 64.062 200.739 63.8669 200.351C61.8567 196.247 61.9692 191.771 62.3518 187.323C62.5618 184.865 62.8543 182.421 62.9443 179.954C63.0493 176.815 62.9293 173.668 62.6293 170.544C62.0443 164.401 60.8141 158.332 59.224 152.375C58.4064 149.318 57.3938 146.321 56.2312 143.384C55.0611 140.439 53.7109 137.569 52.5783 134.609C50.5306 129.25 47.4103 124.504 44.6425 119.512C44.5 119.25 44.125 119.482 44.245 119.743L44.2525 119.728Z" fill="#43588E"/>
<path d="M61.5567 163.534C61.8792 159.632 62.2317 155.873 63.5444 152.158C64.1594 150.424 64.902 148.735 65.5021 146.994C65.9896 145.551 66.7247 143.578 66.3496 142.046C66.3046 141.874 66.0571 141.882 66.0121 142.046C65.7571 142.92 65.7871 143.877 65.6071 144.774C65.4271 145.648 65.1945 146.5 64.9245 147.352C64.3469 149.154 63.5894 150.88 62.9368 152.659C61.6692 156.09 61.0166 159.886 61.2942 163.534C61.3092 163.706 61.5492 163.706 61.5642 163.534H61.5567Z" fill="#43588E"/>
<path d="M38.8673 141.112C40.4199 144.849 45.0929 145.065 48.4982 145.902C50.9285 146.5 52.7211 148.115 54.0113 150.215C55.4214 152.51 56.374 155.2 57.1616 157.764C57.1691 157.794 57.2141 157.779 57.2066 157.749C56.254 153.264 54.8888 147.868 50.2534 145.783C46.533 144.109 41.635 144.953 39.2648 140.947C39.1448 140.753 38.7848 140.88 38.8823 141.112H38.8673Z" fill="#43588E"/>
<path d="M59.0968 162.943C59.2843 163.19 59.4493 163.451 59.6443 163.698C59.7418 163.818 59.8318 163.93 59.9519 164.027C60.0719 164.124 60.2144 164.251 60.3869 164.244C60.4544 164.244 60.5069 164.161 60.4694 164.102C60.3944 163.975 60.2519 163.9 60.1469 163.81C60.0344 163.713 59.9219 163.616 59.8168 163.511C59.5993 163.309 59.4043 163.085 59.1868 162.876C59.1493 162.839 59.0668 162.891 59.1043 162.943H59.0968Z" fill="#43588E"/>
<path d="M49.3834 174.804C52.0612 176.994 54.5364 179.588 56.5016 182.435C57.4392 183.796 58.3093 185.231 59.0969 186.681C59.9519 188.265 60.522 189.939 61.1896 191.606C61.2421 191.733 61.4746 191.733 61.4521 191.569C61.0771 188.048 58.8418 185.036 57.0567 182.107C56.1266 180.589 54.9715 179.364 53.7263 178.093C52.4437 176.785 51.1311 175.544 49.6309 174.491C49.4509 174.364 49.2109 174.662 49.3909 174.804H49.3834Z" fill="#43588E"/>
<path d="M70.7227 170.664C69.4326 171.396 69.3876 173.422 69.3651 174.722C69.3201 177.219 69.9352 179.558 68.8401 181.935C67.85 184.08 66.2673 185.874 65.0222 187.862C63.8596 189.73 62.7045 192.114 62.7345 194.357C62.7345 194.484 62.937 194.558 62.997 194.424C63.4695 193.407 63.6345 192.249 63.9721 191.18C64.3471 189.977 64.8797 188.886 65.5622 187.832C66.7624 185.978 68.2325 184.297 69.2076 182.309C70.2352 180.208 70.0852 178.131 70.0177 175.858C69.9727 174.409 69.8302 172.077 71.0003 171C71.1803 170.828 70.9478 170.544 70.7377 170.664H70.7227Z" fill="#43588E"/>
<path d="M62.0972 194.588C56.8992 194.513 46.9907 194.461 46.9907 194.461L49.4435 212.593C49.9985 216.674 53.4864 219.716 57.6193 219.716H66.5751C70.7081 219.716 74.2034 216.674 74.7509 212.593L77.2037 194.461C77.2037 194.461 67.2952 194.521 62.0972 194.588Z" fill="white"/>
<path d="M313.446 161.262L283.781 219.821L197.29 220.441L223.978 160.439L313.446 161.262Z" fill="#F6F7FA"/>
<path d="M139.887 220.075L139.902 215.388H195.895L221.652 159.102H311.196L313.446 161.269H225.973L199.203 220.03C199.203 220.03 139.887 219.925 139.887 220.075Z" fill="#D9DEE8"/>
<path d="M268.532 193.579C267.557 196.502 262.254 198.759 256.688 198.617C251.123 198.475 247.402 196.001 248.385 193.079C249.36 190.156 254.663 187.899 260.229 188.041C265.794 188.183 269.515 190.657 268.532 193.579Z" fill="#D9DEE8"/>
<path d="M199.202 220.396C199.15 220.396 199.097 220.389 199.045 220.366C198.857 220.284 198.775 220.06 198.857 219.873L225.725 160.895H313.438C313.648 160.895 313.813 161.06 313.813 161.269C313.813 161.478 313.648 161.643 313.438 161.643H226.205L199.532 220.187C199.472 220.321 199.33 220.404 199.187 220.404L199.202 220.396Z" fill="white"/>
<path d="M135.987 224.507H33.0991V247.235H135.987V224.507Z" fill="#596B9B"/>
<path d="M320.52 224.507H135.402V247.235H320.52V224.507Z" fill="#7A89AF"/>
<g style="mix-blend-mode:multiply">
<path d="M135.987 224.507H135.402H33.0991V228.685H135.402H135.987H320.52V224.507H135.987Z" fill="#BDC4D7"/>
</g>
<path d="M140.487 220.022H28.1338V225.59H140.487V220.022Z" fill="#6F7FA9"/>
<path d="M325.02 220.022H139.902V225.59H325.02V220.022Z" fill="#9CA6C3"/>
<path d="M110.012 74.5854H73.693C71.4436 74.5854 69.6201 76.4025 69.6201 78.6438V96.7085C69.6201 98.9499 71.4436 100.767 73.693 100.767H110.012C112.261 100.767 114.084 98.9499 114.084 96.7085V78.6438C114.084 76.4025 112.261 74.5854 110.012 74.5854Z" fill="white"/>
<path d="M124.436 87.6724L110.792 81.9398V93.405L124.436 87.6724Z" fill="white"/>
<path d="M83.2339 90.1762C84.6217 90.1762 85.7467 89.0552 85.7467 87.6724C85.7467 86.2896 84.6217 85.1686 83.2339 85.1686C81.8462 85.1686 80.7212 86.2896 80.7212 87.6724C80.7212 89.0552 81.8462 90.1762 83.2339 90.1762Z" fill="#223A7A"/>
<path d="M91.8521 90.1762C93.2399 90.1762 94.3648 89.0552 94.3648 87.6724C94.3648 86.2896 93.2399 85.1686 91.8521 85.1686C90.4643 85.1686 89.3394 86.2896 89.3394 87.6724C89.3394 89.0552 90.4643 90.1762 91.8521 90.1762Z" fill="#223A7A"/>
<path d="M100.471 90.1762C101.858 90.1762 102.983 89.0552 102.983 87.6724C102.983 86.2896 101.858 85.1686 100.471 85.1686C99.083 85.1686 97.958 86.2896 97.958 87.6724C97.958 89.0552 99.083 90.1762 100.471 90.1762Z" fill="#223A7A"/>
<path d="M294.927 19.0012H211.077C205.691 19.0012 201.326 23.3511 201.326 28.7174V68.3522C201.326 73.7185 205.691 78.0684 211.077 78.0684H218.592C218.802 81.6634 218.285 87.0073 215.277 93.8386C224.968 89.3841 230.541 82.7023 233.459 78.0684H294.935C300.32 78.0684 304.686 73.7185 304.686 68.3522V28.7174C304.686 23.3511 300.32 19.0012 294.935 19.0012H294.927Z" fill="#60A8FF"/>
<path d="M259.156 37.888H217.565C216.425 37.888 215.495 36.9612 215.495 35.8252C215.495 34.6891 216.425 33.7623 217.565 33.7623H259.156C260.297 33.7623 261.227 34.6816 261.227 35.8252C261.227 36.9612 260.304 37.888 259.156 37.888Z" fill="white"/>
<path d="M288.979 49.8987H216.762C216.065 49.8987 215.495 49.3306 215.495 48.6355C215.495 47.9405 216.065 47.3724 216.762 47.3724H288.979C289.677 47.3724 290.247 47.9405 290.247 48.6355C290.247 49.3306 289.677 49.8987 288.979 49.8987Z" fill="#D2E6FF"/>
<path d="M288.979 56.9094H216.762C216.065 56.9094 215.495 56.3414 215.495 55.6463C215.495 54.9512 216.065 54.3832 216.762 54.3832H288.979C289.677 54.3832 290.247 54.9512 290.247 55.6463C290.247 56.3414 289.677 56.9094 288.979 56.9094Z" fill="#D2E6FF"/>
<path d="M273.228 64.3835H216.77C216.072 64.3835 215.502 63.8155 215.502 63.1204C215.502 62.4253 216.072 61.8573 216.77 61.8573H273.228C273.925 61.8573 274.495 62.4253 274.495 63.1204C274.495 63.8155 273.925 64.3835 273.228 64.3835Z" fill="#D2E6FF"/>
<path d="M288.409 37.888H268.57C267.43 37.888 266.5 36.9612 266.5 35.8252C266.5 34.6891 267.43 33.7623 268.57 33.7623H288.409C289.549 33.7623 290.479 34.6816 290.479 35.8252C290.479 36.9612 289.549 37.888 288.409 37.888Z" fill="white"/>
<path d="M238.401 110.722H215.877C215.048 110.722 214.376 111.392 214.376 112.217V127.554C214.376 128.379 215.048 129.049 215.877 129.049H238.401C239.23 129.049 239.901 128.379 239.901 127.554V112.217C239.901 111.392 239.23 110.722 238.401 110.722Z" fill="white"/>
<path d="M227.3 122.628C227.173 122.628 227.045 122.584 226.94 122.501L214.677 112.411C214.437 112.217 214.407 111.858 214.602 111.619C214.804 111.38 215.157 111.35 215.397 111.544L227.293 121.335L238.882 111.29C239.114 111.089 239.474 111.111 239.677 111.343C239.879 111.574 239.857 111.933 239.624 112.135L227.675 122.494C227.57 122.584 227.435 122.628 227.308 122.628H227.3Z" fill="#6F7FA9"/>
<path d="M215.037 128.63C214.894 128.63 214.759 128.578 214.647 128.473C214.422 128.256 214.414 127.905 214.624 127.681L223.198 118.697C223.408 118.473 223.768 118.465 223.993 118.675C224.218 118.891 224.225 119.243 224.015 119.467L215.442 128.451C215.329 128.563 215.187 128.623 215.037 128.623V128.63Z" fill="#6F7FA9"/>
<path d="M239.249 128.301C239.106 128.301 238.964 128.249 238.851 128.137L230.308 119.601C230.09 119.385 230.09 119.026 230.308 118.809C230.525 118.592 230.885 118.592 231.103 118.809L239.646 127.344C239.864 127.561 239.864 127.92 239.646 128.137C239.534 128.249 239.391 128.301 239.249 128.301Z" fill="#6F7FA9"/>
<path d="M241.079 117.651C245.234 117.651 248.603 114.294 248.603 110.154C248.603 106.014 245.234 102.658 241.079 102.658C236.924 102.658 233.556 106.014 233.556 110.154C233.556 114.294 236.924 117.651 241.079 117.651Z" fill="#FF5F42"/>
<path d="M239.86 110.45L239.84 110.22C240.093 110.333 240.313 110.48 240.5 110.66C240.687 110.84 240.83 111.037 240.93 111.25C241.03 111.463 241.08 111.683 241.08 111.91C241.08 112.29 240.973 112.64 240.76 112.96C240.553 113.273 240.273 113.527 239.92 113.72C239.567 113.907 239.173 114 238.74 114C238.307 114 237.913 113.907 237.56 113.72C237.207 113.527 236.923 113.273 236.71 112.96C236.503 112.64 236.4 112.29 236.4 111.91C236.4 111.603 236.463 111.34 236.59 111.12C236.723 110.893 236.887 110.703 237.08 110.55C237.28 110.397 237.477 110.27 237.67 110.17L237.59 110.45C237.423 110.383 237.26 110.29 237.1 110.17C236.947 110.043 236.82 109.883 236.72 109.69C236.62 109.497 236.57 109.27 236.57 109.01C236.57 108.637 236.667 108.3 236.86 108C237.053 107.693 237.313 107.45 237.64 107.27C237.973 107.09 238.34 107 238.74 107C239.147 107 239.51 107.09 239.83 107.27C240.157 107.45 240.417 107.693 240.61 108C240.803 108.3 240.9 108.637 240.9 109.01C240.9 109.297 240.843 109.537 240.73 109.73C240.617 109.923 240.48 110.077 240.32 110.19C240.16 110.303 240.007 110.39 239.86 110.45ZM237.77 109.03C237.77 109.21 237.81 109.37 237.89 109.51C237.977 109.65 238.093 109.763 238.24 109.85C238.387 109.93 238.553 109.97 238.74 109.97C238.927 109.97 239.09 109.93 239.23 109.85C239.377 109.763 239.49 109.65 239.57 109.51C239.657 109.37 239.7 109.21 239.7 109.03C239.7 108.763 239.607 108.543 239.42 108.37C239.24 108.19 239.013 108.1 238.74 108.1C238.46 108.1 238.227 108.19 238.04 108.37C237.86 108.543 237.77 108.763 237.77 109.03ZM238.74 112.9C239.06 112.9 239.33 112.803 239.55 112.61C239.77 112.41 239.88 112.17 239.88 111.89C239.88 111.697 239.83 111.523 239.73 111.37C239.63 111.217 239.493 111.097 239.32 111.01C239.147 110.917 238.953 110.87 238.74 110.87C238.527 110.87 238.333 110.917 238.16 111.01C237.987 111.097 237.85 111.217 237.75 111.37C237.65 111.523 237.6 111.697 237.6 111.89C237.6 112.17 237.71 112.41 237.93 112.61C238.15 112.803 238.42 112.9 238.74 112.9ZM243.889 114.1C243.642 114.1 243.379 114.063 243.099 113.99C242.819 113.91 242.589 113.797 242.409 113.65C242.322 113.577 242.252 113.483 242.199 113.37C242.152 113.25 242.129 113.137 242.129 113.03C242.129 112.917 242.175 112.81 242.269 112.71C242.369 112.61 242.509 112.56 242.689 112.56C242.809 112.56 242.959 112.623 243.139 112.75C243.245 112.817 243.362 112.877 243.489 112.93C243.615 112.983 243.745 113.01 243.879 113.01C244.199 113.01 244.475 112.953 244.709 112.84C244.942 112.72 245.122 112.557 245.249 112.35C245.375 112.143 245.439 111.9 245.439 111.62C245.439 111.367 245.379 111.15 245.259 110.97C245.145 110.79 244.992 110.65 244.799 110.55C244.612 110.45 244.409 110.4 244.189 110.4C243.982 110.4 243.802 110.433 243.649 110.5C243.495 110.567 243.355 110.637 243.229 110.71C243.102 110.777 242.975 110.81 242.849 110.81C242.629 110.81 242.465 110.763 242.359 110.67C242.252 110.57 242.185 110.453 242.159 110.32C242.132 110.187 242.125 110.067 242.139 109.96L242.449 107.53C242.475 107.39 242.542 107.277 242.649 107.19C242.762 107.097 242.895 107.05 243.049 107.05H245.939C246.099 107.05 246.232 107.103 246.339 107.21C246.445 107.317 246.499 107.45 246.499 107.61C246.499 107.763 246.445 107.893 246.339 108C246.232 108.1 246.099 108.15 245.939 108.15H243.359L243.469 108.06L243.199 110.09L243.069 109.71C243.109 109.643 243.195 109.58 243.329 109.52C243.462 109.46 243.615 109.41 243.789 109.37C243.962 109.323 244.132 109.3 244.299 109.3C244.745 109.3 245.145 109.403 245.499 109.61C245.852 109.81 246.129 110.087 246.329 110.44C246.535 110.787 246.639 111.18 246.639 111.62C246.639 112.12 246.525 112.557 246.299 112.93C246.072 113.303 245.752 113.593 245.339 113.8C244.932 114 244.449 114.1 243.889 114.1Z" fill="white"/>
<path d="M316.672 94.5635H272.702C271.045 94.5635 269.702 95.902 269.702 97.5531V104.407C269.702 106.058 271.045 107.396 272.702 107.396H316.672C318.329 107.396 319.672 106.058 319.672 104.407V97.5531C319.672 95.902 318.329 94.5635 316.672 94.5635Z" fill="#223A7A"/>
<path d="M275.875 104.347C275.68 104.347 275.522 104.28 275.402 104.138C275.282 103.996 275.23 103.824 275.245 103.614L275.432 101.955C275.447 101.91 275.432 101.888 275.41 101.873C275.38 101.858 275.35 101.873 275.305 101.895L273.932 102.882C273.76 103.009 273.587 103.054 273.407 103.017C273.227 102.979 273.077 102.875 272.965 102.688C272.837 102.464 272.815 102.269 272.89 102.097C272.965 101.925 273.1 101.813 273.28 101.739L274.817 101.043C274.862 101.028 274.877 101.006 274.877 100.984C274.877 100.961 274.855 100.931 274.817 100.924L273.28 100.229C273.085 100.147 272.957 100.012 272.897 99.8326C272.845 99.6533 272.86 99.4664 272.957 99.287C273.07 99.1077 273.22 98.9956 273.4 98.9582C273.58 98.9208 273.76 98.9582 273.925 99.0703L275.297 100.079C275.342 100.109 275.372 100.117 275.402 100.102C275.432 100.087 275.44 100.057 275.425 100.019L275.237 98.3603C275.222 98.151 275.282 97.9716 275.41 97.8371C275.537 97.6951 275.702 97.6278 275.92 97.6278C276.115 97.6278 276.28 97.6951 276.407 97.8371C276.535 97.9791 276.58 98.151 276.557 98.3603L276.37 100.019C276.355 100.064 276.37 100.087 276.392 100.102C276.422 100.117 276.452 100.102 276.497 100.079L277.87 99.0927C278.035 98.9657 278.215 98.9208 278.41 98.9582C278.598 98.9956 278.74 99.1002 278.845 99.287C278.973 99.5113 278.995 99.7056 278.92 99.8775C278.845 100.042 278.71 100.162 278.53 100.236L276.992 100.931C276.947 100.946 276.932 100.969 276.932 100.991C276.932 101.014 276.955 101.043 276.992 101.051L278.53 101.746C278.725 101.828 278.86 101.963 278.92 102.142C278.98 102.321 278.958 102.508 278.845 102.688C278.748 102.867 278.605 102.979 278.41 103.017C278.223 103.054 278.043 103.017 277.87 102.904L276.497 101.895C276.452 101.866 276.422 101.858 276.392 101.873C276.362 101.888 276.355 101.918 276.37 101.955L276.557 103.614C276.587 103.824 276.535 104.003 276.4 104.138C276.265 104.28 276.092 104.347 275.882 104.347H275.875Z" fill="white"/>
<path d="M284.966 104.347C284.771 104.347 284.614 104.28 284.494 104.138C284.374 103.996 284.321 103.824 284.336 103.614L284.524 101.955C284.539 101.91 284.524 101.888 284.501 101.873C284.471 101.858 284.441 101.873 284.396 101.895L283.023 102.882C282.851 103.009 282.678 103.054 282.498 103.017C282.318 102.979 282.168 102.875 282.056 102.688C281.928 102.464 281.906 102.269 281.981 102.097C282.056 101.925 282.191 101.813 282.371 101.739L283.909 101.043C283.954 101.028 283.969 101.006 283.969 100.984C283.969 100.961 283.946 100.931 283.909 100.924L282.371 100.229C282.176 100.147 282.048 100.012 281.988 99.8326C281.936 99.6533 281.951 99.4664 282.048 99.287C282.161 99.1077 282.311 98.9956 282.491 98.9582C282.671 98.9208 282.851 98.9582 283.016 99.0703L284.389 100.079C284.434 100.109 284.464 100.117 284.494 100.102C284.524 100.087 284.531 100.057 284.516 100.019L284.329 98.3603C284.314 98.151 284.374 97.9716 284.501 97.8371C284.629 97.6951 284.794 97.6278 285.011 97.6278C285.206 97.6278 285.371 97.6951 285.499 97.8371C285.626 97.9791 285.671 98.151 285.649 98.3603L285.461 100.019C285.446 100.064 285.454 100.087 285.484 100.102C285.514 100.117 285.544 100.102 285.589 100.079L286.961 99.0927C287.126 98.9657 287.306 98.9208 287.501 98.9582C287.689 98.9956 287.831 99.1002 287.936 99.287C288.064 99.5113 288.086 99.7056 288.011 99.8775C287.936 100.042 287.801 100.162 287.621 100.236L286.084 100.931C286.039 100.946 286.024 100.969 286.024 100.991C286.024 101.014 286.046 101.043 286.084 101.051L287.621 101.746C287.816 101.828 287.951 101.963 288.011 102.142C288.071 102.321 288.049 102.508 287.936 102.688C287.839 102.867 287.696 102.979 287.501 103.017C287.314 103.054 287.134 103.017 286.961 102.904L285.589 101.895C285.544 101.866 285.514 101.858 285.484 101.873C285.454 101.888 285.446 101.918 285.461 101.955L285.649 103.614C285.679 103.824 285.626 104.003 285.491 104.138C285.356 104.28 285.184 104.347 284.974 104.347H284.966Z" fill="white"/>
<path d="M294.064 104.347C293.869 104.347 293.712 104.28 293.592 104.138C293.472 103.996 293.419 103.824 293.434 103.614L293.622 101.955C293.637 101.91 293.622 101.888 293.599 101.873C293.569 101.858 293.539 101.873 293.494 101.895L292.122 102.882C291.949 103.009 291.777 103.054 291.597 103.017C291.417 102.979 291.267 102.875 291.154 102.688C291.026 102.464 291.004 102.269 291.079 102.097C291.154 101.925 291.289 101.813 291.469 101.739L293.007 101.043C293.052 101.028 293.067 101.006 293.067 100.984C293.067 100.961 293.044 100.931 293.007 100.924L291.469 100.229C291.274 100.147 291.146 100.012 291.086 99.8326C291.034 99.6533 291.049 99.4664 291.146 99.287C291.259 99.1077 291.409 98.9956 291.589 98.9582C291.769 98.9208 291.949 98.9582 292.114 99.0703L293.487 100.079C293.532 100.109 293.562 100.117 293.592 100.102C293.622 100.087 293.629 100.057 293.614 100.019L293.427 98.3603C293.412 98.151 293.472 97.9716 293.599 97.8371C293.727 97.6951 293.892 97.6278 294.109 97.6278C294.304 97.6278 294.469 97.6951 294.597 97.8371C294.724 97.9791 294.769 98.151 294.747 98.3603L294.559 100.019C294.544 100.064 294.552 100.087 294.582 100.102C294.612 100.117 294.642 100.102 294.687 100.079L296.059 99.0927C296.224 98.9657 296.404 98.9208 296.6 98.9582C296.787 98.9956 296.93 99.1002 297.035 99.287C297.162 99.5113 297.185 99.7056 297.11 99.8775C297.035 100.042 296.9 100.162 296.72 100.236L295.182 100.931C295.137 100.946 295.122 100.969 295.122 100.991C295.122 101.014 295.144 101.043 295.182 101.051L296.72 101.746C296.915 101.828 297.05 101.963 297.11 102.142C297.17 102.321 297.147 102.508 297.035 102.688C296.937 102.867 296.795 102.979 296.6 103.017C296.412 103.054 296.232 103.017 296.059 102.904L294.687 101.895C294.642 101.866 294.612 101.858 294.582 101.873C294.552 101.888 294.544 101.918 294.559 101.955L294.747 103.614C294.777 103.824 294.724 104.003 294.589 104.138C294.454 104.28 294.282 104.347 294.072 104.347H294.064Z" fill="white"/>
<path d="M303.155 104.347C302.96 104.347 302.803 104.28 302.683 104.138C302.563 103.996 302.51 103.824 302.525 103.614L302.713 101.955C302.728 101.91 302.713 101.888 302.69 101.873C302.66 101.858 302.63 101.873 302.585 101.895L301.212 102.882C301.04 103.009 300.867 103.054 300.687 103.017C300.507 102.979 300.357 102.875 300.245 102.688C300.117 102.464 300.095 102.269 300.17 102.097C300.245 101.925 300.38 101.813 300.56 101.739L302.098 101.043C302.143 101.028 302.157 101.006 302.157 100.984C302.157 100.961 302.135 100.931 302.098 100.924L300.56 100.229C300.365 100.147 300.237 100.012 300.177 99.8326C300.125 99.6533 300.14 99.4664 300.237 99.287C300.35 99.1077 300.5 98.9956 300.68 98.9582C300.86 98.9208 301.04 98.9582 301.205 99.0703L302.578 100.079C302.623 100.109 302.653 100.117 302.683 100.102C302.713 100.087 302.72 100.057 302.705 100.019L302.518 98.3603C302.503 98.151 302.563 97.9716 302.69 97.8371C302.818 97.6951 302.983 97.6278 303.2 97.6278C303.395 97.6278 303.56 97.6951 303.688 97.8371C303.815 97.9791 303.86 98.151 303.838 98.3603L303.65 100.019C303.635 100.064 303.643 100.087 303.673 100.102C303.703 100.117 303.733 100.102 303.778 100.079L305.15 99.0927C305.315 98.9657 305.495 98.9208 305.69 98.9582C305.878 98.9956 306.02 99.1002 306.125 99.287C306.253 99.5113 306.275 99.7056 306.2 99.8775C306.125 100.042 305.99 100.162 305.81 100.236L304.273 100.931C304.228 100.946 304.213 100.969 304.213 100.991C304.213 101.014 304.235 101.043 304.273 101.051L305.81 101.746C306.005 101.828 306.14 101.963 306.2 102.142C306.26 102.321 306.238 102.508 306.125 102.688C306.028 102.867 305.885 102.979 305.69 103.017C305.503 103.054 305.323 103.017 305.15 102.904L303.778 101.895C303.733 101.866 303.703 101.858 303.673 101.873C303.643 101.888 303.635 101.918 303.65 101.955L303.838 103.614C303.868 103.824 303.815 104.003 303.68 104.138C303.545 104.28 303.373 104.347 303.163 104.347H303.155Z" fill="white"/>
<path d="M312.253 104.347C312.058 104.347 311.901 104.28 311.781 104.138C311.661 103.996 311.608 103.824 311.623 103.614L311.811 101.955C311.826 101.91 311.811 101.888 311.788 101.873C311.758 101.858 311.728 101.873 311.683 101.895L310.311 102.882C310.138 103.009 309.966 103.054 309.786 103.017C309.605 102.979 309.455 102.875 309.343 102.688C309.215 102.464 309.193 102.269 309.268 102.097C309.343 101.925 309.478 101.813 309.658 101.739L311.196 101.043C311.241 101.028 311.256 101.006 311.256 100.984C311.256 100.961 311.233 100.931 311.196 100.924L309.658 100.229C309.463 100.147 309.335 100.012 309.275 99.8326C309.223 99.6533 309.238 99.4664 309.335 99.287C309.448 99.1077 309.598 98.9956 309.778 98.9582C309.958 98.9208 310.138 98.9582 310.303 99.0703L311.676 100.079C311.721 100.109 311.751 100.117 311.781 100.102C311.811 100.087 311.818 100.057 311.803 100.019L311.616 98.3603C311.601 98.151 311.661 97.9716 311.788 97.8371C311.916 97.6951 312.081 97.6278 312.298 97.6278C312.493 97.6278 312.658 97.6951 312.786 97.8371C312.913 97.9791 312.958 98.151 312.936 98.3603L312.748 100.019C312.733 100.064 312.741 100.087 312.771 100.102C312.801 100.117 312.831 100.102 312.876 100.079L314.248 99.0927C314.413 98.9657 314.593 98.9208 314.788 98.9582C314.976 98.9956 315.119 99.1002 315.224 99.287C315.351 99.5113 315.374 99.7056 315.299 99.8775C315.224 100.042 315.089 100.162 314.908 100.236L313.371 100.931C313.326 100.946 313.311 100.969 313.311 100.991C313.311 101.014 313.333 101.043 313.371 101.051L314.908 101.746C315.104 101.828 315.239 101.963 315.299 102.142C315.359 102.321 315.336 102.508 315.224 102.688C315.126 102.867 314.984 102.979 314.788 103.017C314.601 103.054 314.421 103.017 314.248 102.904L312.876 101.895C312.831 101.866 312.801 101.858 312.771 101.873C312.741 101.888 312.733 101.918 312.748 101.955L312.936 103.614C312.966 103.824 312.913 104.003 312.778 104.138C312.643 104.28 312.471 104.347 312.261 104.347H312.253Z" fill="#67ACFF"/>
</svg>
