<svg width="19" height="20" viewBox="0 0 19 20" fill="none" xmlns="http://www.w3.org/2000/svg">
<path d="M6.39205 0.0593085C8.34973 -0.0129915 10.5292 -0.0203581 12.4868 0.0436527C16.2906 0.168451 18.5793 1.42518 18.8892 5.50299C19.0518 7.64067 19.0059 10.2941 18.9379 12.4585C18.8172 16.2941 17.5913 18.6128 13.4946 18.9259C11.3634 19.0889 8.71794 19.0429 6.56009 18.9747C3.12038 18.8656 0.568144 17.8207 0.158152 14.0215C-0.0961996 11.6651 0.00802022 8.58564 0.113617 6.19513C0.307824 1.80602 2.03686 0.219565 6.39205 0.0588475V0.0593085ZM6.94299 1.76319C3.89904 1.85115 2.01345 2.22739 1.80822 5.73094C1.68426 7.84744 1.73935 10.1486 1.81189 12.2702C1.9129 15.2225 2.29718 17.0199 5.69006 17.222C7.67896 17.3404 9.93369 17.3238 11.9354 17.2704C14.9569 17.1903 16.9816 16.8513 17.19 13.3307C17.308 11.3358 17.2915 9.07424 17.2382 7.06642C17.1597 4.08554 16.8306 2.00772 13.3564 1.79589C11.3087 1.67109 9.00443 1.70333 6.94253 1.76273L6.94299 1.76319Z" fill="#231F20"/>
<path d="M14.3511 9.50899C14.3511 12.1956 12.1795 14.3738 9.501 14.3738C6.8225 14.3738 4.65088 12.1956 4.65088 9.50899C4.65088 6.82238 6.8225 4.64417 9.501 4.64417C12.1795 4.64417 14.3511 6.82238 14.3511 9.50899ZM12.6391 9.50899C12.6391 7.77056 11.2342 6.36141 9.501 6.36141C7.76783 6.36141 6.36293 7.77056 6.36293 9.50899C6.36293 11.2474 7.76783 12.6566 9.501 12.6566C11.2342 12.6566 12.6391 11.2474 12.6391 9.50899Z" fill="#231F20"/>
<path d="M14.5374 5.60305C15.167 5.60305 15.6774 5.09111 15.6774 4.4596C15.6774 3.8281 15.167 3.31616 14.5374 3.31616C13.9079 3.31616 13.3975 3.8281 13.3975 4.4596C13.3975 5.09111 13.9079 5.60305 14.5374 5.60305Z" fill="#231F20"/>
</svg>
