<?xml version="1.0" encoding="UTF-8"?>
<svg id="Layer_2" data-name="Layer 2" xmlns="http://www.w3.org/2000/svg" viewBox="0 0 714.33 470.83">
  <g id="Object">
    <g>
      <g>
        <g>
          <path d="M262.6,212.06c1.9-4.31.68-8.93-2.17-12.52-3.1-3.9-7.79-5.79-12.54-6.84-5.03-1.11-10.15-1.64-15.15-2.97-4.59-1.22-9.07-2.85-13.35-4.91-8.61-4.14-16.42-9.94-22.46-17.38-6.81-8.39-10.67-18.69-12.89-29.16-4.04-19.06-2.66-39.16,3.5-57.62,6.13-18.35,17.14-35.06,32.17-47.32,14.79-12.06,33.24-19.76,52.18-21.97,18.68-2.18,37.76.98,54.38,9.92s29.27,21.78,38,37.61c4.35,7.88,7.5,16.4,9.23,25.24,2.2,11.3,1.88,22.99.37,34.36-1.49,11.28-3.88,22.65-7.84,33.35-3.6,9.74-8.8,18.97-16.17,26.35-6.91,6.91-15.51,11.98-25.17,13.77-5.43,1-11.04,1.22-16.32,2.99-4.46,1.49-8.37,4.21-10.87,8.25-2.25,3.64-2.89,7.96-1.04,11.9.82,1.75,3.41.23,2.59-1.51-1.89-4.04.23-8.54,3.11-11.49,3.68-3.76,8.83-5.03,13.87-5.84,5.34-.85,10.71-1.3,15.85-3.06,4.6-1.58,8.95-3.88,12.89-6.73,17.63-12.75,25.64-33.79,29.82-54.39,2.41-11.89,3.98-24.09,3.32-36.25-.53-9.73-2.59-19.3-6.25-28.34-6.86-16.92-18.66-31.62-33.46-42.28-15.34-11.04-33.71-17.11-52.6-17.51-19.24-.41-38.58,4.8-55.15,14.55-16.92,9.96-30.53,24.74-39.39,42.23s-13.09,37.18-12.2,56.71c.47,10.38,2.28,20.89,5.94,30.63s9.33,18.29,17.12,25.1c7.28,6.37,15.89,11.09,25.03,14.18,4.65,1.57,9.41,2.64,14.24,3.42s10.74,1.49,14.83,4.8c3.15,2.55,5.75,7.16,3.96,11.21-.77,1.75,1.81,3.28,2.59,1.51h0Z"/>
          <path d="M260.93,214.96c6.29,2.42,13.07,3.03,19.76,2.79,3.33-.12,6.66-.45,9.97-.85,1.63-.2,3.27-.42,4.9-.64,1.49-.2,2.84-.49,3.38-2.08.62-1.83-2.28-2.62-2.89-.8.17-.51.25-.18-.23-.17-.35.01-.7.1-1.05.15-.76.1-1.53.2-2.3.3-1.5.19-3.01.38-4.52.54-2.94.31-5.88.54-8.84.58-5.93.1-11.82-.58-17.38-2.72-1.8-.69-2.58,2.21-.8,2.89h0Z"/>
          <path d="M258.98,211.52c-1.83,6.12-2.16,12.6-1,18.89.55,3,1.4,6.12,2.8,8.85,1.59,3.1,4.52,3.66,7.69,4.13,6.85,1.03,13.8,1.26,20.69.59,2.75-.27,5.67-.58,7.87-2.42,2.32-1.93,2.99-5.16,3.56-7.97,1.52-7.41,1.38-15.06-.35-22.41-.44-1.88-3.33-1.08-2.89.8,1.35,5.74,1.67,11.71.9,17.56-.35,2.67-.74,5.8-2,8.22s-3.71,2.86-6.13,3.13c-6.01.67-12.12.64-18.13-.03-1.47-.16-2.94-.37-4.4-.63-1.27-.22-2.71-.4-3.6-1.45s-1.25-2.42-1.67-3.63c-.46-1.32-.84-2.66-1.15-4.02-1.4-6.21-1.13-12.71.69-18.8.55-1.85-2.34-2.65-2.89-.8h0Z"/>
          <path d="M259.44,224.61c6.58,1.46,13.28,2.38,20.03,2.37s13.45-.95,20.02-2.43c1.88-.42,1.09-3.32-.8-2.89-6.32,1.42-12.74,2.31-19.23,2.32s-12.91-.86-19.23-2.26c-1.88-.42-2.68,2.47-.8,2.89h0Z"/>
          <path d="M259.51,233.9c13.35,3.69,27.94,5.42,40.81-.86,1.74-.85.22-3.43-1.51-2.59-12.1,5.9-26,4.01-38.5.55-1.86-.52-2.66,2.38-.8,2.89h0Z"/>
          <path d="M267.92,245.01c1.12,3.59,2.23,7.17,3.35,10.76.9,2.88,1.56,6.34,4.68,7.6s6.81.52,9.68-.76c1.39-.62,2.67-1.48,3.59-2.72,1-1.35,1.45-3.02,1.88-4.62,1.11-4.08,1.86-8.24,2.34-12.43.22-1.91-2.78-1.9-3,0-.45,3.93-1.2,7.82-2.23,11.63-.46,1.69-.87,3.48-2.34,4.58-1.37,1.03-3.2,1.59-4.88,1.8-1.44.18-3.55.31-4.71-.75s-1.42-2.93-1.84-4.29c-1.2-3.87-2.41-7.74-3.61-11.6-.57-1.84-3.47-1.05-2.89.8h0Z"/>
          <path d="M275.28,214.25c-1.63-13.92-4.07-27.73-7.43-41.33-1.65-6.69-3.52-13.34-5.57-19.92-2-6.42-3.92-13.05-6.7-19.19-2.31-5.1-6.36-9.64-12.32-9.83-5.54-.17-9.55,4.32-8.73,9.79.88,5.95,6.08,9.36,11.55,10.68,3.14.76,6.42,1.07,9.64,1.26,3.42.2,6.85.1,10.23-.5,5.76-1.03,11.18-3.84,14.75-8.56,3.12-4.13,4.74-10.25,1.96-14.99s-9.53-4.82-13.14-.8c-3.99,4.45-2.9,11.42.24,16.01,5.71,8.32,17.2,10.63,26.66,9.8,5.63-.49,11.98-2.18,14.06-8.1.87-2.49.6-5.37-1.1-7.44-1.54-1.87-4.02-2.69-6.39-2.52-5.8.42-9.24,5.1-10.51,10.4-.76,3.16-.96,6.46-1.27,9.69-.35,3.63-.71,7.26-1.06,10.9-1.47,15.02-2.93,30.04-4.4,45.07-.35,3.63-.71,7.26-1.06,10.9-.19,1.92,2.81,1.91,3,0,1.27-13.04,2.55-26.08,3.82-39.12.64-6.52,1.27-13.04,1.91-19.56.31-3.22.63-6.44.94-9.66.27-2.74.48-5.51,1.22-8.17,1.13-4.07,4.35-8.32,9.13-7.35,2.05.42,3.33,2.1,3.27,4.18-.07,2.33-1.55,4.4-3.48,5.59-4,2.47-9.53,2.57-14.09,2.27-4.3-.28-8.68-1.3-12.45-3.44s-6.66-5.35-7.69-9.51c-.61-2.49-.46-5.44,1.16-7.55,1.25-1.63,3.48-2.67,5.53-2.33,4.98.83,4.58,7.76,3.02,11.17-2,4.35-6.06,7.56-10.52,9.12-5.69,1.99-11.85,1.82-17.76,1.16-4.77-.53-10.65-1.61-13.21-6.18-1.03-1.84-1.5-4.24-.62-6.23s2.87-2.92,4.92-2.96c5.19-.11,8.4,4.23,10.31,8.52,2.36,5.3,4.01,11,5.76,16.52,1.86,5.85,3.57,11.76,5.11,17.7,3.03,11.64,5.41,23.45,7.14,35.36.44,3.05.84,6.11,1.2,9.17.22,1.89,3.22,1.92,3,0h0Z"/>
        </g>
        <path d="M279.11,262.33c-4.24,13.19-8.42,26.48-10.65,40.18-1.1,6.76-1.75,13.6-1.66,20.45.08,5.94.48,12.16,2.9,17.67,2.06,4.7,5.81,8.51,10.93,9.65,4.56,1.02,9.7-.17,12.3-4.33,2.54-4.06,1.5-9.46-1.33-13.07-3.3-4.21-8.85-5.4-13.91-4.35-12.28,2.54-17.74,16.24-20.27,27.1-1.49,6.39-2.1,13.01-1.77,19.56.17,3.4.67,6.75,1.21,10.11s.99,6.86.5,10.3c-.84,5.94-3.68,11.89-7.35,16.6-3.08,3.95-8.02,7.85-13.31,6.04-2.09-.72-4.12-2.31-5-4.38-.95-2.24-.1-4.64,1.79-6.08,4.93-3.75,10.72.03,14.35,3.65,3.5,3.49,6.88,7.09,9.17,11.51,2.6,5.01,3.89,10.7,5.4,16.11,1.12,4,2.18,8.04,2.81,12.15.55,3.62.67,7.29.72,10.95.03,2.39.03,4.78.03,7.17,0,1.93,3,1.93,3,0,0-8.07-.02-16.03-1.82-23.94-1.18-5.17-2.71-10.26-4.21-15.33-1.44-4.86-3.38-9.49-6.47-13.54-1.49-1.96-3.14-3.77-4.86-5.53-2.03-2.08-4.06-4.23-6.6-5.7-4.55-2.65-10.84-2.93-14.59,1.3-3.51,3.96-2.19,9.42,1.73,12.52,4.28,3.39,9.79,3.27,14.34.45,4.82-3,8.14-8.12,10.55-13.14,2.86-5.95,4.06-12.1,3.21-18.67-.44-3.42-1.13-6.8-1.42-10.25-.27-3.21-.31-6.43-.13-9.64.38-6.75,1.8-13.44,4.17-19.77,1.99-5.31,4.9-10.86,9.72-14.13,4.24-2.87,10.55-4.17,14.97-.92,3.38,2.48,5.2,7.84,2.74,11.54-2.62,3.95-8.39,3.65-12.1,1.59-4.81-2.67-6.78-8.38-7.64-13.49-1.06-6.35-.9-13.01-.39-19.41,1.1-13.84,4.76-27.34,8.84-40.56.99-3.2,2.01-6.39,3.03-9.58.59-1.84-2.3-2.63-2.89-.8h0Z"/>
      </g>
      <g>
        <g>
          <path d="M491.17,325.26c-9.75-1.08-17.98-7.32-23.94-14.79-6.64-8.31-11.49-19.03-12.14-29.72s3.49-22.33,8.96-31.9c4.97-8.69,11.63-16.54,19.78-22.41,17.11-12.31,41.12-15.08,59.22-3.19,4.7,3.09,8.84,6.96,12.64,11.09s7.25,8.52,10.14,13.31c5.65,9.37,8.53,19.95,7.88,30.91s-4.44,20.81-11.07,29c-6.15,7.59-14.42,13.48-23.66,16.65-2.27.78-4.59,1.39-6.94,1.86-1.89.37-1.09,3.27.8,2.89,21.12-4.17,38.4-21.05,42.78-42.17,2.33-11.25,1.15-22.96-3.46-33.48-4.66-10.63-12.46-20.27-21.22-27.82s-19.2-12.07-30.76-12.81-22.48,2.02-32.2,7.52c-9.13,5.17-16.82,12.63-22.79,21.22-6.45,9.27-11.42,20.29-12.83,31.55-1.49,11.96,2.45,23.99,8.79,34.04,5.41,8.57,13.11,16.22,22.82,19.62,2.34.82,4.75,1.32,7.21,1.59,1.92.21,1.9-2.79,0-3h0Z"/>
          <path d="M490.55,328.09c1.45,4.42,2.42,9.06,2.3,13.73-.05,1.95,2.84,1.9,3,0,0,.09.11-.23.12-.24.29-.33.48-.47.83-.68.88-.52,1.86-.84,2.84-1.1,2.33-.64,4.75-.96,7.16-1.16,3.19-.27,6.23-.13,9.41.25,2.33.28,4.65.65,6.94,1.17,1.91.44,3.98.92,5.64,2.01.27.17.34.23.63.54-.17-.18.05.08.1.17-.06-.1.03.09.02.06-.02-.25-.09.43,0,0-.04.21-.09.42-.1.63,0,.24.03.49.05.73.03.31-.08,1.22.22.49.27-.66.03-.27-.31-.07-.16.09-.32.18-.49.27-.38.21-.77.4-1.17.58-.85.4-1.74.74-2.63,1.03-1.79.59-3.65,1.01-5.52,1.25-4.41.58-8.94.32-13.29-.56-2.26-.46-4.5-1.07-6.68-1.85-1.84-.66-3.52-1.89-3.8-3.93-.27-1.9-3.16-1.09-2.89.8.64,4.55,5.65,6.1,9.42,7.12,4.48,1.21,9.17,1.85,13.81,1.69,4.32-.15,8.62-.98,12.59-2.73,1.61-.71,3.82-1.41,3.8-3.47,0-.33-.05-.66-.08-.98-.01-.12-.02-.25-.02-.37,0,.05-.02.34.02.04.06-.53.1-.98-.04-1.5-.58-2.1-2.98-3.13-4.83-3.81-2.54-.93-5.23-1.43-7.89-1.85-3.89-.61-7.79-1.06-11.73-.81-3.17.2-6.42.56-9.47,1.45-2.42.71-5.39,1.94-5.64,4.81h3c.13-4.92-.87-9.87-2.41-14.52-.6-1.83-3.5-1.04-2.89.8h0Z"/>
          <path d="M533.06,342.1c.14-4.68.39-9.36.46-14.04.03-1.93-2.97-1.93-3,0-.07,4.68-.33,9.36-.46,14.04-.06,1.93,2.94,1.93,3,0h0Z"/>
          <path d="M493.48,344.81c.69,1.59.45,3.49.69,5.18.26,1.84,1.03,3.4,2.52,4.54,3.17,2.42,7.46,3.5,11.35,4.01s8.19.39,12.27.04c3.72-.32,8.16-.44,10.82-3.47,3.28-3.74,2.52-8.88,1.62-13.35-.38-1.89-3.28-1.09-2.89.8.81,4.01,1.79,10.01-3,11.96-1.97.8-4.24.87-6.33,1.05-2.26.2-4.53.34-6.8.33-4.44,0-9.02-.55-13.06-2.51-.93-.45-2.03-.94-2.71-1.74-.61-.72-.78-1.66-.87-2.56-.2-2-.17-3.89-.99-5.77-.77-1.77-3.36-.24-2.59,1.51h0Z"/>
          <path d="M496.37,353.72c-.94,7.89,6.42,12.75,12.47,15.92,3.32,1.74,6.69,3.02,10.38,1.58,3.26-1.27,5.88-3.81,8.1-6.45,2.65-3.16,4.67-6.7,5.14-10.85.22-1.92-2.79-1.9-3,0-.43,3.85-2.79,7.19-5.35,9.97-2.33,2.53-5.56,5.51-9.3,4.94-1.93-.29-3.69-1.37-5.39-2.28s-3.48-1.89-5.05-3.08c-3.07-2.33-5.48-5.75-5-9.76.23-1.91-2.77-1.9-3,0h0Z"/>
          <path d="M513.82,341.56c-1.37-17.11-2.79-34.22-4.27-51.32-.16-1.91-3.17-1.93-3,0,1.48,17.1,2.9,34.21,4.27,51.32.15,1.91,3.15,1.93,3,0h0Z"/>
          <path d="M506.35,287.18c-3.13.86-6.32,1.47-9.56,1.76-2.9.26-6.04.6-8.25-1.68-1.7-1.76-2.88-4.66-2-7.08.71-1.95,3.12-3.1,4.9-1.81,1.14.82,2.46-.53,2.2-1.69-1.12-5.17,1.91-11.3,7.18-12.77s10.92,2.28,11.66,7.55c.2,1.43,2.08,1.25,2.74.36,2.05-2.78,6.21-3.88,9.36-2.41s4.98,5.32,4.21,8.73c-.35,1.55,1.36,2.37,2.51,1.46,1.01-.81,2.4.23,2.97,1.06.51.75,1.67,2.93.99,3.74-.63.74-2.51.69-3.35.79-1.69.2-3.39.4-5.09.59-6.67.74-13.36,1.31-20.08,1.36-1.93.01-1.93,3.01,0,3,9.06-.07,18.18-.94,27.15-2.19,1.52-.21,3.14-.7,4.01-2.07,1.05-1.65.38-3.73-.33-5.37-1.42-3.31-5.19-5.57-8.39-3.02l2.51,1.46c1.09-4.82-1.3-10.21-5.9-12.26-4.65-2.08-10.17-.4-13.15,3.63l2.74.36c-.97-6.88-8.8-11.47-15.35-9.65-6.9,1.92-10.74,9.7-9.28,16.46l2.2-1.69c-2.58-1.86-6.3-.86-8.19,1.51-2.26,2.83-1.73,6.95,0,9.9,2.01,3.45,5.27,5,9.2,4.92,4.43-.09,8.9-.87,13.17-2.04,1.86-.51,1.07-3.4-.8-2.89h0Z"/>
        </g>
        <path d="M518.04,371.03c1.82,12.8,3.64,25.6,5.46,38.4s3.8,25.48,5.01,38.3c.67,7.18,1.07,14.38,1.01,21.59-.02,1.93,2.98,1.93,3,0,.11-12.94-1.29-25.82-3.01-38.63-1.73-12.86-3.63-25.71-5.46-38.56-1.04-7.3-2.08-14.61-3.12-21.91-.27-1.9-3.16-1.09-2.89.8h0Z"/>
      </g>
      <g>
        <g>
          <path d="M586.24,225.14c1.8-9.63-3.1-18.84-9.77-25.49-7.3-7.28-16.8-11.78-25-17.89-16.09-11.98-25.51-31.36-31.36-50.09-3.28-10.51-5.21-21.68-3.69-32.69s5.88-20.68,10.74-30.19c9.23-18.07,21.32-35.13,37.58-47.53,15.35-11.71,33.86-18.75,53.29-18.27,18.32.45,36.14,7.01,51.29,17.13,7.66,5.12,14.68,11.2,20.84,18.06,6.75,7.52,12.71,16.01,16.45,25.45,4.07,10.29,5.14,21.38,4.59,32.37s-2.33,21.6-5.45,31.93-7.33,19.15-13.26,27.53c-5.47,7.73-12.12,14.59-19.39,20.63s-15.36,11.37-23.71,15.97-17.99,9.07-22.05,18.37c-1.75,4.03-2.31,8.56-.76,12.75.67,1.79,3.57,1.02,2.89-.8-1.63-4.41-.58-9.09,1.79-13.03,2.58-4.28,6.67-7.33,10.9-9.87,4.29-2.58,8.8-4.78,13.11-7.33s8.24-5.09,12.16-7.92c15.87-11.45,29.44-26.19,37.16-44.35,4.24-9.97,6.86-20.54,8.35-31.25s2.07-22.25.1-33.25c-3.58-19.98-16.67-37.3-31.93-50.14-14.2-11.95-31.42-20.7-49.78-23.92-9.07-1.59-18.32-1.82-27.44-.48-9.72,1.43-19.1,4.77-27.74,9.43-18.05,9.74-32.36,25.09-43.25,42.28-5.64,8.9-10.64,18.36-14.54,28.16-4.1,10.3-6.2,21.08-5.21,32.17.98,11.05,4.35,21.74,8.56,31.96,3.77,9.15,8.35,18.01,14.42,25.86,3.01,3.9,6.37,7.53,10.13,10.72,3.98,3.38,8.37,6.22,12.76,9.03,8.54,5.46,17.38,11.15,22.08,20.49,2.07,4.12,3.08,8.8,2.22,13.37-.35,1.89,2.54,2.7,2.89.8h0Z"/>
          <path d="M584.15,226.97c4.19.85,8.44.78,12.69.54s8.63-.52,12.95-.78,8.83-.53,13.24-.8c3.19-.19,8.04-.63,9.81,2.79,1.59,3.07-1.96,5.73-4.3,6.97-3.48,1.84-7.54,2.85-11.36,3.67-4,.87-8.06,1.41-12.13,1.84s-8.47,1.27-12.53.63c-3.78-.6-7.37-2.71-9.64-5.82-1.22-1.67-2.25-3.83-1.9-5.96.27-1.65,1.56-3.29,3.32-3.41,1.92-.13,1.93-3.13,0-3-4.08.27-6.73,4.13-6.34,8.06.43,4.23,3.42,7.88,6.83,10.22,3.6,2.46,7.83,3.27,12.13,3.02,4.75-.27,9.53-.84,14.24-1.5s9.52-1.63,14.09-3.2c3.7-1.27,7.77-2.95,9.91-6.44s.76-7.36-2.47-9.41c-3.94-2.5-9.22-1.5-13.6-1.24-5.72.34-11.45.69-17.17,1.03s-11.42,1-16.99-.13c-1.89-.38-2.69,2.51-.8,2.89h0Z"/>
          <path d="M583.01,239.41c-1.68,4.57-3.75,12.48,1.65,15.42,2.08,1.14,4.58,1.24,6.9,1.13,3.13-.15,6.27-.43,9.4-.7,6.57-.57,13.12-1.32,19.61-2.5,4.89-.89,10.57-1.96,13.73-6.21,2.69-3.61,2.47-9.98-2.02-12.09-1.74-.82-3.26,1.77-1.51,2.59,2.96,1.39,2.83,5.62.99,7.91-2.77,3.46-7.91,4.17-11.99,4.9-5.43.98-10.91,1.66-16.4,2.17-2.65.25-5.31.46-7.97.65-2.25.16-4.59.48-6.85.21-2.41-.29-4.18-1.52-4.32-4.09-.16-2.9.68-5.92,1.67-8.62.67-1.82-2.23-2.6-2.89-.8h0Z"/>
          <path d="M592.16,255.91c1.23,1.4,2.29,2.94,3.15,4.6.81,1.56,1.26,3.21,1.89,4.83s1.61,2.86,3.24,3.51,3.47.59,5.21.56c4.1-.06,8.2-.35,12.27-.86,1.72-.22,3.69-.27,5.26-1.08,1.45-.75,2.18-2.18,2.65-3.67,1.34-4.26,1.68-8.87,1.16-13.3-.22-1.89-3.23-1.92-3,0,.5,4.22.39,9.04-1.23,13.04-.77,1.9-3.09,1.79-4.85,2.01-2.24.28-4.48.49-6.73.64s-4.5.24-6.75.23c-1.87,0-3.62-.12-4.41-2.06-.74-1.79-1.22-3.63-2.12-5.37-.98-1.89-2.22-3.62-3.62-5.21-1.28-1.45-3.39.68-2.12,2.12h0Z"/>
          <path d="M599.12,223.6c-1.06-17.99-2.15-36-4.86-53.83-1.36-8.91-3.13-17.77-5.52-26.47-1.17-4.27-2.48-8.51-3.99-12.67-1.27-3.5-2.73-7-4.87-10.07s-5.09-5.99-8.74-7.27c-2.99-1.05-7.26-.62-9.26,2.13-.99,1.36-.93,3.17-.78,4.78.12,1.33.42,2.63,1.17,3.76,1.48,2.24,4.22,4.05,6.51,5.34,5.96,3.34,13.14,4.23,19.79,2.79,3.32-.72,6.56-2.07,9.36-4s5.93-4.81,6.7-8.41c.51-2.39.39-5.5-1.08-7.55-1.73-2.41-5.63-3-8.13-1.44-2.1,1.31-2.09,3.81-2.46,5.95-.68,3.84,1.3,7.75,3.77,10.57,4.74,5.41,12.48,7.36,19.02,4.2,5.76-2.79,9.46-9.51,7.79-15.88-.74-2.81-3.16-4.75-6.09-3.65s-5.61,3.97-6.1,7.11c-1.2,7.63,6.21,13.65,12.94,15.11,4.21.91,8.6.47,12.73-.62,3.78-1,8.25-2.35,11.07-5.2,2.01-2.03,4.58-4.84,4.29-7.9-.15-1.54-1.03-3.25-2.4-4.05s-2.92-.75-4.38-.53c-3.37.5-6.59,2.05-8.82,4.66-2.67,3.13-4.73,6.89-6.66,10.5-3.97,7.44-7.03,15.36-9.34,23.46-5.02,17.56-6.51,35.89-7.27,54.06-.19,4.55-.33,9.1-.48,13.65-.06,1.93,2.94,1.93,3,0,.97-30.57,2.05-62.71,16.99-90.23,1.69-3.12,3.47-6.42,5.74-9.16,1.84-2.21,4.32-3.49,7.14-3.97.9-.15,2.12-.32,2.82.4,1.09,1.1.66,2.58-.06,3.72-1.57,2.5-3.79,4.49-6.49,5.67-6.25,2.73-14.09,4.51-20.56,1.52-5.1-2.36-10.58-9.38-5.04-14.18.65-.57,1.9-1.6,2.85-1.33.87.24,1.17,1.41,1.32,2.17.45,2.28.03,4.96-1.06,7-2.83,5.3-9.41,7.49-14.95,5.47-2.82-1.03-5.32-3.05-6.97-5.55-.88-1.34-1.62-2.85-1.87-4.44-.21-1.32.13-2.63.3-3.94.08-.59.12-1.35.54-1.81.66-.72,2.14-.69,2.99-.49,2.05.48,2.19,2.94,2.14,4.67-.09,3.14-2.35,5.53-4.72,7.34s-5,3.05-7.81,3.83c-5.49,1.54-11.56,1.23-16.82-1.01-2.47-1.05-4.72-2.57-6.71-4.37-.59-.53-1.1-1.09-1.39-1.84-.4-1.08-.65-2.94-.3-4.04.33-1.02,1.7-1.46,2.63-1.66,1.64-.37,3.32.05,4.79.83,2.8,1.49,4.97,3.99,6.62,6.66,1.73,2.81,2.96,5.87,4.05,8.98,1.28,3.65,2.43,7.34,3.47,11.07,2.09,7.49,3.71,15.1,5,22.76,2.57,15.28,3.8,30.74,4.78,46.19.24,3.74.46,7.48.68,11.22.11,1.92,3.11,1.93,3,0h0Z"/>
        </g>
        <path d="M608.42,269.6c-.67,20.6-1.33,41.19-2,61.79-.31,9.53-1.21,19.29.19,28.77,1.18,7.97,4.66,16.84,12.61,20.23,3.32,1.41,7.28,1.48,10.42-.44,2.64-1.61,4.53-4.44,5.03-7.49s-.35-6.33-2.67-8.57-5.76-3.36-9.02-3.33c-3.34.03-6.72,1.21-9.07,3.64-2.8,2.9-3.86,6.85-4.37,10.74-1.26,9.47-1.6,19.11-2.25,28.64-1.31,19.54-2.76,39.2-7.56,58.25-.6,2.38-1.25,4.75-1.95,7.1-.55,1.85,2.34,2.65,2.89.8,5.19-17.42,7.32-35.53,8.73-53.6.71-9.15,1.24-18.32,1.92-27.47.32-4.31.59-8.65,1.12-12.95.43-3.56,1.33-7.41,4.12-9.9,3.98-3.55,12.55-3.09,14.79,2.33,1,2.42.37,5.32-1.18,7.36-1.9,2.5-5.09,3.42-8.11,2.7-7.73-1.85-11.13-10.53-12.36-17.52-1.53-8.69-.66-17.78-.38-26.54.62-19.1,1.23-38.2,1.85-57.31.08-2.41.16-4.82.23-7.23.06-1.93-2.94-1.93-3,0h0Z"/>
      </g>
      <g>
        <g>
          <path d="M156.7,323.21c-4.02-1.53-8.03-2.91-11.83-4.98-3.57-1.94-6.9-4.28-9.86-7.07-5.67-5.37-9.81-12.08-13.03-19.15-3.04-6.68-5.12-13.65-5.32-21.03-.19-6.91,1.15-13.77,3.65-20.21,5.09-13.09,14.88-24.24,26.33-32.2,13.48-9.36,29.87-14.65,46.34-13.8,13.71.71,27.06,5.98,37.89,14.35s19.03,19.69,22.67,32.74c3.51,12.55,2.21,26.14-2.86,38.09s-13.76,22.23-25.11,28.43c-5.34,2.91-11.4,4.22-16.64,7.3-2.41,1.42-4.69,3.3-6.04,5.8-.72,1.33-1.15,2.77-1.32,4.28-.18,1.62.45,3.89-.7,5.21-.89,1.03-2.55,1.24-3.82,1.36-2.18.2-4.37.3-6.56.42-4.71.25-9.45.46-14.17.41-3.58-.03-7.19-.82-8.51-4.56-1.16-3.28-.99-6.96-3.07-9.9-1.95-2.77-4.99-4.28-8.06-5.48-1.8-.7-2.58,2.2-.8,2.89,3.28,1.28,6.47,3.09,7.5,6.69s1,7.23,3.5,10.09,6.75,3.31,10.42,3.28c4.9-.04,9.79-.21,14.68-.49,3.36-.19,7.98.15,10.69-2.27,2.89-2.58,1.1-6.68,2.55-9.89,2.38-5.3,9.22-7.25,14.2-9.09,12.83-4.75,23.36-14,30.25-25.78,6.82-11.66,10.08-25.6,8.43-39.06-1.72-13.99-8.64-26.89-18.57-36.8-10.04-10.01-23.12-17.11-37.06-19.82-16.74-3.26-34.26.08-49.22,8.07-13.03,6.96-24.49,17.52-31.8,30.41-7.2,12.7-9.9,27.69-5.95,41.89,2.11,7.57,5.73,15.06,10.2,21.51,4.74,6.83,10.85,12.41,18.21,16.3,3.85,2.04,7.91,3.43,11.97,4.97,1.81.69,2.59-2.21.8-2.89Z"/>
          <path d="M168.75,342.16c-2.59,2.08-2.82,5.97-.53,8.36,1.29,1.34,3.01,1.71,4.79,1.88,2.12.2,4.25.34,6.37.45,4.18.21,8.38.24,12.56-.02,3.56-.22,7.96-.2,10.76-2.78s2.45-7.22-1.37-8.36c-1.85-.55-2.65,2.34-.8,2.89,1.26.37,1.2,1.91.55,2.8-.97,1.33-2.71,1.75-4.26,1.99-3.7.57-7.53.65-11.27.64s-7.56-.2-11.32-.51c-1.5-.12-3.3-.09-4.2-1.52-.84-1.33-.29-2.78.85-3.7,1.5-1.21-.63-3.32-2.12-2.12h0Z"/>
          <path d="M169.73,349.72c-2.04,2.5-4.21,6.05-1.83,9.07,2.07,2.64,6.08,2.68,9.13,2.78,4.22.15,8.44-.2,12.62-.75,2.15-.28,4.3-.62,6.44-.97,1.8-.3,3.76-.44,5.48-1.08s2.98-1.99,3.03-3.87c.05-2-1.21-3.76-2.41-5.23s-3.34.64-2.12,2.12c.76.93,2.38,2.94.97,3.94-1.19.84-3.38.83-4.76,1.06-3.96.67-7.93,1.29-11.94,1.6-3.64.28-7.57.52-11.18-.14-1.16-.21-2.76-.6-3.19-1.86-.55-1.59.98-3.43,1.9-4.56,1.21-1.48-.9-3.62-2.12-2.12h0Z"/>
          <path d="M173.56,362.04c.58,2.09,1.16,4.18,1.74,6.27.29,1.04.58,2.09.87,3.13.23.84.38,1.79.9,2.51,1.08,1.48,3.51,1.27,5.14,1.36,2.12.12,4.24.13,6.36,0s4.19-.36,6.27-.7,3.78-.47,4.27-2.77c.89-4.13,1.32-8.39,1.41-12.61.04-1.93-2.96-1.93-3,0-.08,3.51-.41,7.01-1.05,10.47-.08.43-.23.91-.26,1.34l-.09.45c.28-.26.18-.29-.29-.1-.78,0-1.69.31-2.46.43-1.74.26-3.5.42-5.25.51-1.66.08-3.33.08-5,.02-.91-.04-1.82-.1-2.72-.18-.28-.03-.84,0-1.11-.14.38.2.14-.08.03-.5-.94-3.44-1.9-6.86-2.86-10.3-.52-1.86-3.41-1.07-2.89.8h0Z"/>
          <path d="M182.96,343.29c-4.99-16.94-9.28-34.07-12.85-51.37-1.01-4.92-1.97-9.85-2.87-14.78l-2.2,1.69c3.99,2.74,7.76,5.76,11.29,9.07.7.65,1.86.56,2.36-.3,2.19-3.8,3.79-7.9,4.75-12.18l-2.74.36c1.37,2.01,2.74,4.01,4.11,6.02.64.94,1.28,1.87,1.92,2.81.49.72.97,1.59,1.74,2.05,1.94,1.17,3.4-.82,4.58-2.09,1.69-1.81,3.37-3.62,5.06-5.43l-2.56-1.06c1.75,17.25-4.48,33.89-6,50.92-.43,4.86-.45,9.75.18,14.59.11.81.61,1.49,1.5,1.5.73,0,1.6-.7,1.5-1.5-2.25-17.21,3.9-33.93,5.67-50.88.51-4.86.64-9.76.14-14.63-.12-1.2-1.6-2.09-2.56-1.06-1.24,1.33-2.47,2.66-3.71,3.98-.67.72-1.35,1.45-2.02,2.17l-.34.36c-.43.24-.47.39-.11.46.29.17.31.13.05-.1-.14-.2-.27-.4-.41-.6-2.05-3.01-4.11-6.02-6.16-9.03-.68-1-2.44-.99-2.74.36-.9,4.04-2.38,7.87-4.45,11.47l2.36-.3c-3.72-3.48-7.7-6.67-11.9-9.54-1.18-.81-2.42.52-2.2,1.69,3.16,17.37,7.03,34.6,11.62,51.65,1.31,4.85,2.67,9.68,4.09,14.5.54,1.85,3.44,1.06,2.89-.8h0Z"/>
          <path d="M222.28,230.01c11.14,5.91,19.02,16.98,20.92,29.45.29,1.9,3.18,1.09,2.89-.8-2-13.17-10.54-25.02-22.3-31.24-1.7-.9-3.22,1.68-1.51,2.59h0Z"/>
        </g>
        <path d="M185.57,373.74c-3.16,24.87,2.45,49.6,3.43,74.41.28,7.06.16,14.14-.61,21.18-.21,1.92,2.79,1.9,3,0,2.74-24.9-2.96-49.59-3.7-74.43-.21-7.07,0-14.14.89-21.16.24-1.91-2.76-1.89-3,0h0Z"/>
      </g>
      <g>
        <g>
          <path d="M411.78,288.13c-5.64-.07-11.3.17-16.93-.17-4.22-.26-9.18-.55-12.84-2.9-1.55-.99-3.17-2.41-3.89-4.15-.67-1.59-.46-3.4-.32-5.08.44-5.29.4-10.63.55-15.94s.69-10.52-1.9-15.18c-2.11-3.8-5.64-6.55-9.09-9.06-3.65-2.65-7.25-5.27-10.54-8.37s-6.35-6.52-9.05-10.17c-10.92-14.75-16.57-33.09-15.46-51.44,1.15-18.94,9.21-37.41,22.22-51.21s30.78-22.79,49.48-25.79c19.17-3.07,39.77.19,55,12.84,13.18,10.95,21.6,26.88,25.22,43.48,4.17,19.12,1.98,40-6.32,57.74-7.82,16.73-21.29,30.72-38.13,38.47-2.06.95-4.16,1.78-6.29,2.52-1.93.67-3.91,1.32-5.69,2.34s-3.25,2.35-4.07,4.17c-1.09,2.42-.78,5.04-.53,7.6.59,5.82,1.05,11.66,1.38,17.5.21,3.75,1.05,9.88-3.04,11.94-2.91,1.47-6.61.92-9.74.87-1.93-.03-1.93,2.97,0,3,3.62.05,7.48.46,10.87-1.1,4.33-1.98,5.14-6.96,5.07-11.26-.1-5.75-.66-11.54-1.18-17.26-.25-2.71-.93-5.7-.56-8.42.31-2.26,1.84-3.68,3.77-4.69s4.11-1.61,6.17-2.37c2.18-.81,4.32-1.72,6.42-2.73,4.25-2.04,8.3-4.48,12.09-7.27,7.51-5.51,14.04-12.27,19.31-19.95,11.88-17.29,16.83-38.93,15.17-59.72-1.4-17.61-7.95-35.05-19.39-48.6-5.6-6.64-12.48-12.28-20.26-16.18-9.65-4.83-20.46-6.88-31.2-6.96-19.56-.13-39.2,6.31-54.83,18.08s-26.96,28.92-31.65,48.01c-4.6,18.75-2.4,38.53,6.2,55.81,4.18,8.41,9.83,16.14,16.64,22.61,3.41,3.25,7.16,6.03,10.97,8.78,3.53,2.54,7.39,5.42,9.1,9.58,1.02,2.48,1.04,5.19.99,7.84-.06,2.9-.16,5.8-.23,8.71s-.14,5.85-.24,8.77c-.07,1.98-.41,3.97-.32,5.96.18,4.15,3.07,7.42,6.61,9.35,4.03,2.19,9.08,2.57,13.57,2.84,5.63.35,11.29.1,16.93.17,1.93.02,1.93-2.98,0-3Z"/>
          <path d="M377.67,254.16c15.1-2.41,30.62-1.69,45.45,2.02,1.87.47,2.67-2.42.8-2.89-15.38-3.85-31.39-4.51-47.04-2.02-1.9.3-1.09,3.19.8,2.89h0Z"/>
          <path d="M377.25,264.48c15.98,1.58,32.03,2.33,48.09,2.25,1.93,0,1.93-3.01,0-3-16.06.08-32.11-.67-48.09-2.25-1.92-.19-1.91,2.81,0,3h0Z"/>
          <path d="M378.5,275.8c15.83,1.21,31.72,1.57,47.59,1.08,1.93-.06,1.93-3.06,0-3-15.87.49-31.76.13-47.59-1.08-1.93-.15-1.92,2.85,0,3h0Z"/>
          <path d="M387.46,290.09c1.68,4.73.67,11.92,7.01,13.23,1.47.3,2.97.32,4.46.35,1.88.04,3.75.18,5.63.22,2.85.06,6.23.31,8.41-1.9,2.72-2.77,2.9-7.31,3.44-10.91.28-1.89-2.61-2.7-2.89-.8s-.48,3.81-.93,5.68c-.38,1.55-.92,3.62-2.43,4.43-1.23.66-2.81.54-4.15.53-2.14-.02-4.28-.15-6.42-.22-2.79-.09-6.06.31-7.31-2.76-1.12-2.75-.94-5.85-1.93-8.64-.64-1.81-3.54-1.03-2.89.8h0Z"/>
          <path d="M397.65,251.46c5.79-15.62,10.73-31.54,16.42-47.19,2.93-8.07,6.12-16.08,7.92-24.5,1.22-5.71,3.09-15.34-4.02-18.1-3.39-1.32-7.39.11-9.89,2.55-3.04,2.96-4.14,7.32-5.09,11.31l2.74-.36c-3.3-4.8-5.93-11.98-13.03-11.36-2.88.25-5.28,2.04-5.7,5.01-.52,3.66,1.12,7.81,2.43,11.16,1.44,3.67,3.12,7.25,4.63,10.89s3.01,7.54,4.39,11.36c2.73,7.56,5.11,15.25,7.14,23.03,2.31,8.84,4.16,17.79,5.56,26.81.3,1.9,3.19,1.09,2.89-.8-2.28-14.66-5.75-29.12-10.41-43.2-2.3-6.94-4.88-13.79-7.74-20.52-1.45-3.43-3.06-6.8-4.3-10.31-.56-1.58-1.04-3.2-1.38-4.84-.3-1.46-.73-3.45.41-4.66,1.63-1.73,4.86-.96,6.51.32,2.77,2.14,4.07,5.82,6,8.63.69,1,2.43.98,2.74-.36.77-3.27,1.55-6.88,3.83-9.48,1.76-2,4.97-3.49,7.56-2.22s2.98,4.64,2.88,7.22c-.13,3.63-1.02,7.3-1.93,10.8-1.96,7.54-4.87,14.78-7.51,22.09s-5.06,14.5-7.52,21.77c-2.74,8.08-5.48,16.16-8.45,24.16-.67,1.81,2.23,2.59,2.89.8h0Z"/>
        </g>
        <path d="M399.76,303.06c-6.6,23.54-7.59,48.56-2.85,72.55,1.2,6.06,2.87,11.99,4.38,17.97,1.51,5.95,2.61,11.95,3.42,18.04,1.16,8.67,1.64,17.37.8,26.09-1.02,10.59-3.12,21.07-4.52,31.61-.11.81.77,1.49,1.5,1.5.9,0,1.39-.7,1.5-1.5,1.27-9.59,3.06-19.11,4.21-28.71.98-8.19.94-16.36.06-24.56-.62-5.77-1.42-11.56-2.64-17.24-1.3-6.07-3.07-12.02-4.51-18.05-2.83-11.86-4.22-24.03-4.16-36.22.07-13.75,1.99-27.44,5.71-40.68.52-1.86-2.37-2.66-2.89-.8h0Z"/>
      </g>
      <g>
        <g>
          <path d="M37.79,398.89c-.14-4.73-1.71-9.31-4.34-13.23-1.39-2.07-3.04-3.98-4.9-5.64-1.97-1.77-4.2-3.14-6.34-4.67-8.02-5.76-14.14-14.08-17.11-23.51-3.19-10.12-2.47-20.87.69-30.91,1.76-5.61,4.24-10.95,7.16-16.05,2.73-4.78,5.77-9.5,9.69-13.4,7.77-7.73,18.87-11.06,29.54-12.14,10.79-1.09,22.6-.33,32.29,4.94s16.59,14.67,20.37,24.6,4.27,20.34,1.18,30.27c-3.15,10.12-9.66,18.88-16.81,26.54-3.85,4.12-7.96,7.99-12.17,11.73-2.03,1.8-4.35,3.48-6.02,5.64-1.51,1.95-1.85,4.19-1.57,6.6s1.03,4.83,1.81,7.18c.61,1.82,3.5,1.04,2.89-.8-.8-2.41-1.69-4.94-1.8-7.5-.12-2.81,1.53-4.38,3.53-6.13,4.37-3.82,8.69-7.68,12.77-11.81,7.69-7.78,14.72-16.53,18.86-26.75,4.01-9.89,4.56-20.89,1.73-31.17s-9.02-20.32-17.42-27.06c-8.93-7.16-20.37-9.66-31.62-9.68s-22.92,2.03-32.54,7.84c-9.77,5.89-16.15,16.34-20.87,26.44-4.83,10.35-7.81,21.91-6.49,33.39,1.13,9.81,5.25,19.07,11.74,26.52,1.72,1.98,3.61,3.81,5.63,5.48s4.39,3.16,6.58,4.76c4,2.92,7.39,6.99,9.15,11.65.83,2.21,1.31,4.51,1.38,6.88.06,1.93,3.06,1.93,3,0h0Z"/>
          <path d="M36.7,398.61c-1.41.45-3.04,1.19-3.54,2.72s.38,2.94,1.54,3.86c2.36,1.89,5.71,2.15,8.6,2.43,3.55.35,7.07.75,10.65.77,4.05.03,8.11-.2,12.14-.61,2.46-.25,4.92-.57,7.32-1.16,2.16-.53,4.69-1.29,6.22-3.01,1.9-2.15.97-5.05-1.25-6.58-3.32-2.29-8.01-1.3-11.74-1.03-5.02.37-10.05.68-15.08,1.05-2.55.19-5.1.39-7.64.63-2.39.22-4.9.29-7.22.92-1.86.51-1.07,3.4.8,2.89,1.68-.46,3.47-.53,5.2-.7,1.97-.19,3.94-.36,5.91-.52,3.62-.29,7.25-.54,10.87-.78s7.54-.56,11.32-.81c1.64-.11,3.42-.24,4.99.35.86.32,2.03,1.08,1.91,2.05-.03.22-.42.68-.81.97-.77.57-1.72.91-2.62,1.2-1.96.63-4,1-6.04,1.28-5.96.8-12.11,1.08-18.12.73-2.97-.17-6.01-.46-8.95-.9-1.32-.2-2.75-.45-3.94-1.09-.25-.13-1.27-.71-1.23-1.08.02-.19,1.22-.61,1.49-.7,1.83-.59,1.05-3.49-.8-2.89Z"/>
          <path d="M36.75,404.26c-1.94.8-4.74,2.04-4.87,4.5-.12,2.3,1.98,3.55,3.94,4.05,2.81.72,5.89.73,8.77.9,3.17.19,6.34.31,9.51.35,5.58.07,11.15-.19,16.73-.35,3.12-.09,6.88-.06,9.65-1.72,1.38-.82,2.32-2.18,2.21-3.83-.17-2.73-2.45-4.59-4.63-5.87-1.67-.98-3.18,1.61-1.51,2.59,1.25.73,3.08,1.84,3.16,3.47.01.3-.03.43-.18.6-.27.33-.69.55-1.1.73-2.2.96-4.89.94-7.25,1.02-9.2.29-18.36.56-27.55-.05-2.41-.16-5.02-.14-7.35-.83-.52-.15-1.57-.42-1.3-1.08.31-.75,1.89-1.31,2.57-1.59,1.76-.72.99-3.63-.8-2.89h0Z"/>
          <path d="M36.4,410.93c-1.68,1.12-2.75,2.88-1.98,4.91.68,1.78,2.45,3.05,4.26,3.51,2.09.53,4.41.53,6.55.63,2.38.11,4.76.19,7.14.11,2.56-.08,5.11-.32,7.66-.46,2.82-.16,5.64-.11,8.47-.14,3.97-.03,8.53.25,12.33-1.14,1.86-.68,3.49-2.17,4.09-4.09.71-2.26-.73-4.05-2.7-4.98-1.74-.82-3.26,1.77-1.51,2.59,1.32.62,1.78,1.18.84,2.4-.8,1.05-1.89,1.37-3.15,1.64-3.22.67-6.64.56-9.9.58-4.22.03-8.4.13-12.61.41-3.83.26-7.63.24-11.46.03-1.72-.09-3.8,0-5.43-.63-1.26-.49-2.62-1.78-1.09-2.8s.1-3.66-1.51-2.59h0Z"/>
          <path d="M39.39,417.18c-3.36.8-4.26,6.14-2.01,8.44,1.41,1.45,3.73,2.11,5.7,2.16,2.95.08,5.93-.1,8.88-.21,5.95-.22,11.89-.55,17.83-.77,2.92-.1,5.85-.05,8.77-.2,1.89-.1,4.21-.63,5.85-1.62,3.7-2.23,1.56-8.09-1.89-9.28-1.83-.63-2.62,2.27-.8,2.89.94.32,1.47,1.46,1.57,2.39.13,1.28-.56,1.55-1.65,1.91-1.76.58-3.35.7-5.19.73-2.22.03-4.43.1-6.65.18-4.56.16-9.12.4-13.67.6-2.29.1-4.57.19-6.86.26-2.16.06-4.44.31-6.59.1-1.15-.11-3.2-.59-3.47-1.93-.16-.81,0-2.53.98-2.77,1.88-.45,1.08-3.34-.8-2.89h0Z"/>
          <path d="M50.98,397.72c-.86-9.36-2.58-18.62-5.16-27.66-1.29-4.51-2.79-8.95-4.49-13.32-1.29-3.33-2.73-6.98-5.93-8.92-2.44-1.47-5.45-1.24-7.39.93-1.15,1.29-2.33,3.23-2,5.02s1.86,3.33,3.31,4.43c6,4.57,15.24,4.77,21.43.46,2.67-1.86,5.05-4.63,5.58-7.93.43-2.67-.11-6.28-3.04-7.3-2.61-.91-7.22.28-7.93,3.29s1.59,6.83,3.91,8.69c3.06,2.45,6.82,3.43,10.68,3.5,3.36.06,6.96.47,10.22-.56,1.31-.41,2.76-1.13,3.52-2.33s.72-2.65.5-3.97c-.54-3.24-2.43-5.66-5.76-6.21-3.78-.62-6.52,2.41-7.98,5.59s-1.87,6.35-2.2,9.64c-.97,9.66-1.51,19.37-1.69,29.08-.05,2.47-.07,4.94-.06,7.41,0,1.93,3,1.93,3,0,0-7.91.23-15.82.73-23.71.25-3.95.56-7.9.94-11.84.25-2.65.55-5.32,1.41-7.86.7-2.07,2.43-5.68,5.08-5.41,1.14.12,2.14.49,2.74,1.49.54.9.89,1.99.93,3.04.04.91-.17,1.31-.97,1.77-1.08.62-2.41.8-3.63.89-2.76.21-5.71.16-8.46-.08-2.99-.26-6.15-1.51-8.18-3.78-.75-.84-1.25-1.92-1.57-2.99-.35-1.2-.45-1.93.79-2.47.8-.35,2.22-.7,3.07-.33.9.39,1.07,1.71,1.1,2.57.07,2.45-1.25,4.61-3.01,6.23-4.43,4.09-11.45,4.68-16.82,2.22-1.32-.6-2.57-1.39-3.6-2.43-.46-.46-1.14-1.14-1.1-1.85.03-.58.67-1.5,1.02-1.95,1.28-1.64,3.07-1.43,4.57-.22,2.75,2.24,3.85,6.39,5.02,9.59,1.47,4.02,2.77,8.1,3.9,12.23,2.23,8.2,3.76,16.58,4.54,25.04.18,1.91,3.18,1.92,3,0h0Z"/>
        </g>
        <path d="M57.04,425.13c-.59,3.85-.59,7.7.09,11.54s2.37,7.3,3.46,11.02c2.26,7.67-2.27,14.68-6.27,20.88-1.05,1.63,1.55,3.13,2.59,1.51,4.01-6.23,8.43-13.31,7.08-21.05-.67-3.85-2.63-7.33-3.55-11.12s-1.13-8-.52-11.98c.29-1.89-2.6-2.7-2.89-.8h0Z"/>
      </g>
    </g>
  </g>
</svg>