<svg width="19" height="16" viewBox="0 0 19 16" fill="none" xmlns="http://www.w3.org/2000/svg">
<path d="M1.29807 6.90098C6.39794 4.65034 9.79275 3.15401 11.4978 2.42885C16.3503 0.370678 17.3699 0.0149049 18.026 0C18.172 0 18.4921 0.0291586 18.7108 0.20737C18.8855 0.355771 18.9289 0.548241 18.9589 0.695995C18.9876 0.844396 19.0175 1.15481 18.9876 1.39199C18.7255 4.20513 17.5886 11.0322 17.0064 14.172C16.7584 15.505 16.2782 15.9489 15.8121 15.993C14.7919 16.0818 14.0203 15.3112 13.0441 14.66C11.4997 13.6387 10.6402 13.0016 9.13916 11.9939C7.40478 10.8385 8.52703 10.2021 9.51792 9.16588C9.77999 8.89953 14.2531 4.75273 14.3404 4.3827C14.3551 4.33863 14.3551 4.16106 14.2531 4.07228C14.151 3.9835 14.005 4.01267 13.889 4.04312C13.7283 4.07229 11.281 5.73126 6.51654 9.00387C5.81705 9.49249 5.19088 9.72967 4.62274 9.71477C3.99594 9.69986 2.801 9.35964 1.8981 9.06349C0.805813 8.70836 -0.0690324 8.51589 0.0042965 7.89377C0.0470186 7.56781 0.483804 7.2425 1.29999 6.90163L1.29807 6.90098Z" fill="#282828"/>
</svg>
